<svg xmlns="http://www.w3.org/2000/svg" viewBox="0 0 480 480"><style>:root{--ground:#f7f3e9;--g00:#72808d;--g01:#697684;--g02:#606b79;--g03:#565f6a;--g04:#545c63;--g10:#d9dfe4;--g11:#d0d8df;--g12:#c6ced6;--g13:#bac3cd;--g14:#b7c1c9}@media(prefers-color-scheme:dark){:root{--ground:#0b1410;--g00:#7d8ea6;--g01:#73869c;--g02:#6e859c;--g03:#697e95;--g04:#606f81;--g10:#eaeef1;--g11:#e8edf1;--g12:#dfe6eb;--g13:#d6dee5;--g14:#c6d1d9}}</style><defs><clipPath id="r0"><path d="M240 70L269.7 225.3L425 255L269.7 284.7L240 440L210.3 284.7L55 255L210.3 225.3Z"/></clipPath><clipPath id="r1"><path d="M196 255a44 44 0 1 0 88 0a44 44 0 1 0 -88 0Z"/></clipPath></defs><rect x="8" y="8" width="464" height="464" rx="82" fill="var(--ground)"/><g clip-path="url(#r0)"><polygon points="10.8,50.7 17.5,17.2 41.4,13.8 49.2,23.3 42.0,52.9" fill="var(--g01)" stroke="var(--g01)" stroke-width="1.5" stroke-linejoin="round"/><polygon points="42.0,52.9 49.2,23.3 85.1,31.3 87.4,40.3 47.0,59.8" fill="var(--g03)" stroke="var(--g03)" stroke-width="1.5" stroke-linejoin="round"/><polygon points="87.4,40.3 85.1,31.3 90.0,20.7 119.0,7.7 131.9,38.5 110.4,53.2 93.4,50.0" fill="var(--g03)" stroke="var(--g03)" stroke-width="1.5" stroke-linejoin="round"/><polygon points="163.7,42.4 167.6,29.7 187.0,12.7 214.4,29.2 217.5,56.9 212.5,61.1" fill="var(--g03)" stroke="var(--g03)" stroke-width="1.5" stroke-linejoin="round"/><polygon points="217.5,56.9 214.4,29.2 237.8,11.3 242.7,57.2" fill="var(--g02)" stroke="var(--g02)" stroke-width="1.5" stroke-linejoin="round"/><polygon points="242.7,57.2 237.8,11.3 238.8,9.8 276.2,34.3 280.8,42.2 278.5,47.2 248.3,58.9" fill="var(--g04)" stroke="var(--g04)" stroke-width="1.5" stroke-linejoin="round"/><polygon points="322.9,39.7 327.4,29.8 359.4,6.5 371.2,17.6 353.7,57.2 323.7,41.0" fill="var(--g02)" stroke="var(--g02)" stroke-width="1.5" stroke-linejoin="round"/><polygon points="353.7,57.2 371.2,17.6 397.2,24.7 399.1,53.8 393.5,58.5 358.6,70.2" fill="var(--g02)" stroke="var(--g02)" stroke-width="1.5" stroke-linejoin="round"/><polygon points="399.1,53.8 397.2,24.7 398.7,23.7 432.8,17.1 453.6,50.2 432.4,76.1" fill="var(--g03)" stroke="var(--g03)" stroke-width="1.5" stroke-linejoin="round"/><polygon points="4.7,56.1 10.8,50.7 42.0,52.9 47.0,59.8 50.7,81.4 20.7,93.9 20.6,93.7" fill="var(--g00)" stroke="var(--g00)" stroke-width="1.5" stroke-linejoin="round"/><polygon points="50.7,81.4 47.0,59.8 87.4,40.3 93.4,50.0 78.2,87.6 70.4,89.9" fill="var(--g01)" stroke="var(--g01)" stroke-width="1.5" stroke-linejoin="round"/><polygon points="78.2,87.6 93.4,50.0 110.4,53.2 130.9,83.9 116.3,98.5 96.5,97.9" fill="var(--g04)" stroke="var(--g04)" stroke-width="1.5" stroke-linejoin="round"/><polygon points="110.4,53.2 131.9,38.5 163.4,42.7 156.1,81.2 130.9,83.9" fill="var(--g03)" stroke="var(--g03)" stroke-width="1.5" stroke-linejoin="round"/><polygon points="156.1,81.2 163.4,42.7 163.7,42.4 212.5,61.1 209.2,73.7 195.2,86.6 160.4,86.2" fill="var(--g04)" stroke="var(--g04)" stroke-width="1.5" stroke-linejoin="round"/><polygon points="209.2,73.7 212.5,61.1 217.5,56.9 242.7,57.2 248.3,58.9 249.3,97.2 239.2,106.7" fill="var(--g00)" stroke="var(--g00)" stroke-width="1.5" stroke-linejoin="round"/><polygon points="249.3,97.2 248.3,58.9 278.5,47.2 296.3,91.4 290.1,96.5" fill="var(--g03)" stroke="var(--g03)" stroke-width="1.5" stroke-linejoin="round"/><polygon points="278.5,47.2 280.8,42.2 285.0,40.5 322.9,39.7 323.7,41.0 318.7,89.9 315.0,93.5 296.3,91.4" fill="var(--g00)" stroke="var(--g00)" stroke-width="1.5" stroke-linejoin="round"/><polygon points="318.7,89.9 323.7,41.0 353.7,57.2 358.6,70.2 357.5,73.6" fill="var(--g01)" stroke="var(--g01)" stroke-width="1.5" stroke-linejoin="round"/><polygon points="357.5,73.6 358.6,70.2 393.5,58.5 389.8,108.1 370.9,98.2" fill="var(--g01)" stroke="var(--g01)" stroke-width="1.5" stroke-linejoin="round"/><polygon points="389.8,108.1 393.5,58.5 399.1,53.8 432.4,76.1 432.5,81.3 391.6,109.9" fill="var(--g04)" stroke="var(--g04)" stroke-width="1.5" stroke-linejoin="round"/><polygon points="443.0,94.5 432.5,81.3 432.4,76.1 453.6,50.2 457.8,50.0 481.4,90.0 470.8,102.5" fill="var(--g04)" stroke="var(--g04)" stroke-width="1.5" stroke-linejoin="round"/><polygon points="19.6,109.1 20.7,93.9 50.7,81.4 70.4,89.9 63.2,116.9 34.8,129.9" fill="var(--g01)" stroke="var(--g01)" stroke-width="1.5" stroke-linejoin="round"/><polygon points="63.2,116.9 70.4,89.9 78.2,87.6 96.5,97.9 91.3,136.8 84.6,144.2" fill="var(--g00)" stroke="var(--g00)" stroke-width="1.5" stroke-linejoin="round"/><polygon points="91.3,136.8 96.5,97.9 116.3,98.5 125.6,126.5" fill="var(--g01)" stroke="var(--g01)" stroke-width="1.5" stroke-linejoin="round"/><polygon points="125.6,126.5 116.3,98.5 130.9,83.9 156.1,81.2 160.4,86.2 162.7,114.3 149.1,134.9 134.9,133.9" fill="var(--g00)" stroke="var(--g00)" stroke-width="1.5" stroke-linejoin="round"/><polygon points="162.7,114.3 160.4,86.2 195.2,86.6 206.4,127.0" fill="var(--g00)" stroke="var(--g00)" stroke-width="1.5" stroke-linejoin="round"/><polygon points="206.4,127.0 195.2,86.6 209.2,73.7 239.2,106.7 232.9,125.6 209.3,129.8" fill="var(--g01)" stroke="var(--g01)" stroke-width="1.5" stroke-linejoin="round"/><polygon points="232.9,125.6 239.2,106.7 249.3,97.2 290.1,96.5 283.6,122.5 244.7,136.7" fill="var(--g00)" stroke="var(--g00)" stroke-width="1.5" stroke-linejoin="round"/><polygon points="283.6,122.5 290.1,96.5 296.3,91.4 315.0,93.5 330.5,120.4 325.3,134.7 293.9,141.3" fill="var(--g01)" stroke="var(--g01)" stroke-width="1.5" stroke-linejoin="round"/><polygon points="315.0,93.5 318.7,89.9 357.5,73.6 370.9,98.2 338.8,120.2 330.5,120.4" fill="var(--g01)" stroke="var(--g01)" stroke-width="1.5" stroke-linejoin="round"/><polygon points="338.8,120.2 370.9,98.2 389.8,108.1 391.6,109.9 393.0,120.2 389.0,130.3 367.4,137.7" fill="var(--g01)" stroke="var(--g01)" stroke-width="1.5" stroke-linejoin="round"/><polygon points="393.0,120.2 391.6,109.9 432.5,81.3 443.0,94.5 434.2,129.9" fill="var(--g01)" stroke="var(--g01)" stroke-width="1.5" stroke-linejoin="round"/><polygon points="434.2,129.9 443.0,94.5 470.8,102.5 478.2,123.4 436.9,134.7" fill="var(--g01)" stroke="var(--g01)" stroke-width="1.5" stroke-linejoin="round"/><polygon points="-47.9,145.7 19.6,109.1 34.8,129.9 34.5,134.7 22.2,151.9 9.2,159.8" fill="var(--g04)" stroke="var(--g04)" stroke-width="1.5" stroke-linejoin="round"/><polygon points="22.2,151.9 34.5,134.7 70.8,161.0 48.9,172.7" fill="var(--g01)" stroke="var(--g01)" stroke-width="1.5" stroke-linejoin="round"/><polygon points="34.5,134.7 34.8,129.9 63.2,116.9 84.6,144.2 82.2,161.1 70.8,161.0" fill="var(--g04)" stroke="var(--g04)" stroke-width="1.5" stroke-linejoin="round"/><polygon points="82.2,161.1 84.6,144.2 91.3,136.8 125.6,126.5 134.9,133.9 110.4,170.9 89.2,169.8" fill="var(--g04)" stroke="var(--g04)" stroke-width="1.5" stroke-linejoin="round"/><polygon points="110.4,170.9 134.9,133.9 149.1,134.9 164.8,161.0 156.8,173.0 124.5,180.6" fill="var(--g03)" stroke="var(--g03)" stroke-width="1.5" stroke-linejoin="round"/><polygon points="149.1,134.9 162.7,114.3 206.4,127.0 209.3,129.8 193.2,160.7 164.8,161.0" fill="var(--g02)" stroke="var(--g02)" stroke-width="1.5" stroke-linejoin="round"/><polygon points="193.2,160.7 209.3,129.8 232.9,125.6 244.7,136.7 253.5,160.3 251.7,164.8 196.4,165.9" fill="var(--g01)" stroke="var(--g01)" stroke-width="1.5" stroke-linejoin="round"/><polygon points="253.5,160.3 244.7,136.7 283.6,122.5 293.9,141.3 288.9,154.1 281.3,159.7" fill="var(--g03)" stroke="var(--g03)" stroke-width="1.5" stroke-linejoin="round"/><polygon points="288.9,154.1 293.9,141.3 325.3,134.7 331.4,155.5 320.4,171.9" fill="var(--g00)" stroke="var(--g00)" stroke-width="1.5" stroke-linejoin="round"/><polygon points="331.4,155.5 325.3,134.7 330.5,120.4 338.8,120.2 367.4,137.7 355.2,160.3" fill="var(--g00)" stroke="var(--g00)" stroke-width="1.5" stroke-linejoin="round"/><polygon points="355.2,160.3 367.4,137.7 389.0,130.3 402.7,169.6 393.4,179.2 362.6,172.2" fill="var(--g02)" stroke="var(--g02)" stroke-width="1.5" stroke-linejoin="round"/><polygon points="402.7,169.6 389.0,130.3 393.0,120.2 434.2,129.9 436.9,134.7 437.6,161.5 432.8,168.3" fill="var(--g02)" stroke="var(--g02)" stroke-width="1.5" stroke-linejoin="round"/><polygon points="437.6,161.5 436.9,134.7 478.2,123.4 484.1,129.8 480.0,154.0" fill="var(--g01)" stroke="var(--g01)" stroke-width="1.5" stroke-linejoin="round"/><polygon points="9.2,159.8 22.2,151.9 48.9,172.7 33.1,200.4 24.2,202.7" fill="var(--g04)" stroke="var(--g04)" stroke-width="1.5" stroke-linejoin="round"/><polygon points="33.1,200.4 48.9,172.7 70.8,161.0 82.2,161.1 89.2,169.8 80.9,202.4 77.8,205.8 54.2,206.3" fill="var(--g01)" stroke="var(--g01)" stroke-width="1.5" stroke-linejoin="round"/><polygon points="80.9,202.4 89.2,169.8 110.4,170.9 124.5,180.6 128.5,219.5" fill="var(--g04)" stroke="var(--g04)" stroke-width="1.5" stroke-linejoin="round"/><polygon points="128.5,219.5 124.5,180.6 156.8,173.0 164.6,209.7 130.2,222.1" fill="var(--g04)" stroke="var(--g04)" stroke-width="1.5" stroke-linejoin="round"/><polygon points="164.6,209.7 156.8,173.0 164.8,161.0 193.2,160.7 196.4,165.9 205.9,194.2 170.2,212.0" fill="var(--g00)" stroke="var(--g00)" stroke-width="1.5" stroke-linejoin="round"/><polygon points="205.9,194.2 196.4,165.9 251.7,164.8 245.8,202.2 244.3,203.7 214.5,199.5" fill="var(--g04)" stroke="var(--g04)" stroke-width="1.5" stroke-linejoin="round"/><polygon points="245.8,202.2 251.7,164.8 253.5,160.3 281.3,159.7 295.9,201.0" fill="var(--g03)" stroke="var(--g03)" stroke-width="1.5" stroke-linejoin="round"/><polygon points="295.9,201.0 281.3,159.7 288.9,154.1 320.4,171.9 318.3,197.0 311.0,202.7 297.8,201.8" fill="var(--g02)" stroke="var(--g02)" stroke-width="1.5" stroke-linejoin="round"/><polygon points="318.3,197.0 320.4,171.9 331.4,155.5 355.2,160.3 362.6,172.2 342.9,199.2" fill="var(--g01)" stroke="var(--g01)" stroke-width="1.5" stroke-linejoin="round"/><polygon points="342.9,199.2 362.6,172.2 393.4,179.2 392.7,187.7 388.6,196.0 358.0,213.5" fill="var(--g02)" stroke="var(--g02)" stroke-width="1.5" stroke-linejoin="round"/><polygon points="392.7,187.7 393.4,179.2 402.7,169.6 432.8,168.3 444.5,192.6 425.1,216.7" fill="var(--g02)" stroke="var(--g02)" stroke-width="1.5" stroke-linejoin="round"/><polygon points="444.5,192.6 432.8,168.3 437.6,161.5 480.0,154.0 480.1,154.2 481.3,202.4 473.1,204.9" fill="var(--g03)" stroke="var(--g03)" stroke-width="1.5" stroke-linejoin="round"/><polygon points="13.4,228.3 17.5,210.4 24.2,202.7 33.1,200.4 54.2,206.3 52.7,237.4 22.4,238.3" fill="var(--g01)" stroke="var(--g01)" stroke-width="1.5" stroke-linejoin="round"/><polygon points="52.7,237.4 54.2,206.3 77.8,205.8 80.0,230.0 59.2,240.8" fill="var(--g00)" stroke="var(--g00)" stroke-width="1.5" stroke-linejoin="round"/><polygon points="80.0,230.0 77.8,205.8 80.9,202.4 128.5,219.5 130.2,222.1 126.4,241.0 86.0,236.7" fill="var(--g02)" stroke="var(--g02)" stroke-width="1.5" stroke-linejoin="round"/><polygon points="126.4,241.0 130.2,222.1 164.6,209.7 170.2,212.0 180.2,238.5 166.3,250.7 128.4,247.5" fill="var(--g02)" stroke="var(--g02)" stroke-width="1.5" stroke-linejoin="round"/><polygon points="180.2,238.5 170.2,212.0 205.9,194.2 214.5,199.5 198.2,244.3" fill="var(--g03)" stroke="var(--g03)" stroke-width="1.5" stroke-linejoin="round"/><polygon points="198.2,244.3 214.5,199.5 244.3,203.7 247.3,235.2 207.9,254.9" fill="var(--g02)" stroke="var(--g02)" stroke-width="1.5" stroke-linejoin="round"/><polygon points="247.3,235.2 244.3,203.7 245.8,202.2 295.9,201.0 297.8,201.8 277.8,243.6 270.9,249.4 259.1,247.6" fill="var(--g03)" stroke="var(--g03)" stroke-width="1.5" stroke-linejoin="round"/><polygon points="277.8,243.6 297.8,201.8 311.0,202.7 318.0,235.7" fill="var(--g03)" stroke="var(--g03)" stroke-width="1.5" stroke-linejoin="round"/><polygon points="318.0,235.7 311.0,202.7 318.3,197.0 342.9,199.2 358.0,213.5 360.6,234.5 353.0,248.2 320.9,240.2" fill="var(--g03)" stroke="var(--g03)" stroke-width="1.5" stroke-linejoin="round"/><polygon points="360.6,234.5 358.0,213.5 388.6,196.0 395.8,231.0" fill="var(--g01)" stroke="var(--g01)" stroke-width="1.5" stroke-linejoin="round"/><polygon points="395.8,231.0 388.6,196.0 392.7,187.7 425.1,216.7 421.4,237.9 411.6,240.9" fill="var(--g00)" stroke="var(--g00)" stroke-width="1.5" stroke-linejoin="round"/><polygon points="421.4,237.9 425.1,216.7 444.5,192.6 473.1,204.9 456.5,245.5 442.3,247.8" fill="var(--g03)" stroke="var(--g03)" stroke-width="1.5" stroke-linejoin="round"/><polygon points="-79.7,272.8 13.4,228.3 22.4,238.3 30.9,265.2 19.1,280.6 -58.5,278.1" fill="var(--g01)" stroke="var(--g01)" stroke-width="1.5" stroke-linejoin="round"/><polygon points="30.9,265.2 22.4,238.3 52.7,237.4 59.2,240.8 59.4,270.6" fill="var(--g03)" stroke="var(--g03)" stroke-width="1.5" stroke-linejoin="round"/><polygon points="59.4,270.6 59.2,240.8 80.0,230.0 86.0,236.7 80.3,271.7 64.9,274.9" fill="var(--g04)" stroke="var(--g04)" stroke-width="1.5" stroke-linejoin="round"/><polygon points="80.3,271.7 86.0,236.7 126.4,241.0 128.4,247.5 125.4,261.9 100.0,278.8" fill="var(--g02)" stroke="var(--g02)" stroke-width="1.5" stroke-linejoin="round"/><polygon points="125.4,261.9 128.4,247.5 166.3,250.7 169.9,273.1 165.8,276.7 137.1,276.3" fill="var(--g02)" stroke="var(--g02)" stroke-width="1.5" stroke-linejoin="round"/><polygon points="169.9,273.1 166.3,250.7 180.2,238.5 198.2,244.3 207.9,254.9 206.6,280.7" fill="var(--g03)" stroke="var(--g03)" stroke-width="1.5" stroke-linejoin="round"/><polygon points="206.6,280.7 207.9,254.9 247.3,235.2 259.1,247.6 250.2,272.5 207.2,282.2" fill="var(--g03)" stroke="var(--g03)" stroke-width="1.5" stroke-linejoin="round"/><polygon points="250.2,272.5 259.1,247.6 270.9,249.4 298.9,279.0 298.1,279.7 256.2,288.2" fill="var(--g02)" stroke="var(--g02)" stroke-width="1.5" stroke-linejoin="round"/><polygon points="270.9,249.4 277.8,243.6 318.0,235.7 320.9,240.2 300.7,279.1 298.9,279.0" fill="var(--g02)" stroke="var(--g02)" stroke-width="1.5" stroke-linejoin="round"/><polygon points="300.7,279.1 320.9,240.2 353.0,248.2 360.8,274.9 357.4,280.6 324.1,295.4" fill="var(--g02)" stroke="var(--g02)" stroke-width="1.5" stroke-linejoin="round"/><polygon points="360.8,274.9 353.0,248.2 360.6,234.5 395.8,231.0 411.6,240.9 394.9,272.4" fill="var(--g03)" stroke="var(--g03)" stroke-width="1.5" stroke-linejoin="round"/><polygon points="394.9,272.4 411.6,240.9 421.4,237.9 442.3,247.8 436.8,280.6 416.9,290.7 404.4,283.7" fill="var(--g01)" stroke="var(--g01)" stroke-width="1.5" stroke-linejoin="round"/><polygon points="436.8,280.6 442.3,247.8 456.5,245.5 468.0,253.7 480.1,279.9 466.8,300.2" fill="var(--g00)" stroke="var(--g00)" stroke-width="1.5" stroke-linejoin="round"/><polygon points="29.0,307.4 19.1,280.6 30.9,265.2 59.4,270.6 64.9,274.9 57.4,304.9" fill="var(--g03)" stroke="var(--g03)" stroke-width="1.5" stroke-linejoin="round"/><polygon points="57.4,304.9 64.9,274.9 80.3,271.7 100.0,278.8 103.2,307.2 97.2,315.9 68.8,319.2" fill="var(--g02)" stroke="var(--g02)" stroke-width="1.5" stroke-linejoin="round"/><polygon points="103.2,307.2 100.0,278.8 125.4,261.9 137.1,276.3 141.3,309.0" fill="var(--g01)" stroke="var(--g01)" stroke-width="1.5" stroke-linejoin="round"/><polygon points="141.3,309.0 137.1,276.3 165.8,276.7 164.1,317.1 141.7,309.4" fill="var(--g04)" stroke="var(--g04)" stroke-width="1.5" stroke-linejoin="round"/><polygon points="164.1,317.1 165.8,276.7 169.9,273.1 206.6,280.7 207.2,282.2 207.6,303.0 168.7,320.8" fill="var(--g03)" stroke="var(--g03)" stroke-width="1.5" stroke-linejoin="round"/><polygon points="207.6,303.0 207.2,282.2 250.2,272.5 256.2,288.2 250.4,314.8 246.8,316.1 216.1,310.2" fill="var(--g00)" stroke="var(--g00)" stroke-width="1.5" stroke-linejoin="round"/><polygon points="250.4,314.8 256.2,288.2 298.1,279.7 271.9,320.7" fill="var(--g03)" stroke="var(--g03)" stroke-width="1.5" stroke-linejoin="round"/><polygon points="271.9,320.7 298.1,279.7 298.9,279.0 300.7,279.1 324.1,295.4 321.6,325.4 314.1,335.9 279.1,328.6" fill="var(--g03)" stroke="var(--g03)" stroke-width="1.5" stroke-linejoin="round"/><polygon points="321.6,325.4 324.1,295.4 357.4,280.6 370.8,312.5 361.5,331.5" fill="var(--g01)" stroke="var(--g01)" stroke-width="1.5" stroke-linejoin="round"/><polygon points="370.8,312.5 357.4,280.6 360.8,274.9 394.9,272.4 404.4,283.7 386.8,314.6" fill="var(--g03)" stroke="var(--g03)" stroke-width="1.5" stroke-linejoin="round"/><polygon points="386.8,314.6 404.4,283.7 416.9,290.7 421.8,316.5 392.8,319.3" fill="var(--g02)" stroke="var(--g02)" stroke-width="1.5" stroke-linejoin="round"/><polygon points="421.8,316.5 416.9,290.7 436.8,280.6 466.8,300.2 466.8,300.6 427.3,322.8" fill="var(--g04)" stroke="var(--g04)" stroke-width="1.5" stroke-linejoin="round"/><polygon points="17.2,349.6 18.2,322.5 29.0,307.4 57.4,304.9 68.8,319.2 57.4,357.6 51.1,360.1" fill="var(--g04)" stroke="var(--g04)" stroke-width="1.5" stroke-linejoin="round"/><polygon points="57.4,357.6 68.8,319.2 97.2,315.9 108.2,343.2 72.2,362.3" fill="var(--g03)" stroke="var(--g03)" stroke-width="1.5" stroke-linejoin="round"/><polygon points="108.2,343.2 97.2,315.9 103.2,307.2 141.3,309.0 141.7,309.4 118.7,348.7" fill="var(--g04)" stroke="var(--g04)" stroke-width="1.5" stroke-linejoin="round"/><polygon points="118.7,348.7 141.7,309.4 164.1,317.1 168.7,320.8 167.6,352.3 162.3,356.5 130.0,363.7" fill="var(--g04)" stroke="var(--g04)" stroke-width="1.5" stroke-linejoin="round"/><polygon points="167.6,352.3 168.7,320.8 207.6,303.0 216.1,310.2 210.9,360.5 201.8,365.9" fill="var(--g00)" stroke="var(--g00)" stroke-width="1.5" stroke-linejoin="round"/><polygon points="210.9,360.5 216.1,310.2 246.8,316.1 241.2,363.1" fill="var(--g02)" stroke="var(--g02)" stroke-width="1.5" stroke-linejoin="round"/><polygon points="241.2,363.1 246.8,316.1 250.4,314.8 271.9,320.7 279.1,328.6 271.8,350.5 248.9,369.4" fill="var(--g01)" stroke="var(--g01)" stroke-width="1.5" stroke-linejoin="round"/><polygon points="271.8,350.5 279.1,328.6 314.1,335.9 314.4,337.7 309.7,356.3 287.3,363.9" fill="var(--g01)" stroke="var(--g01)" stroke-width="1.5" stroke-linejoin="round"/><polygon points="314.4,337.7 314.1,335.9 321.6,325.4 361.5,331.5 371.5,356.9 359.7,369.3" fill="var(--g02)" stroke="var(--g02)" stroke-width="1.5" stroke-linejoin="round"/><polygon points="371.5,356.9 361.5,331.5 370.8,312.5 386.8,314.6 392.8,319.3 392.5,350.5 385.8,356.1" fill="var(--g01)" stroke="var(--g01)" stroke-width="1.5" stroke-linejoin="round"/><polygon points="392.5,350.5 392.8,319.3 421.8,316.5 427.3,322.8 428.9,341.8" fill="var(--g01)" stroke="var(--g01)" stroke-width="1.5" stroke-linejoin="round"/><polygon points="428.9,341.8 427.3,322.8 466.8,300.6 480.4,324.1 468.8,343.1 432.7,345.9" fill="var(--g03)" stroke="var(--g03)" stroke-width="1.5" stroke-linejoin="round"/><polygon points="7.5,396.2 7.6,355.1 17.2,349.6 51.1,360.1 45.4,406.3 11.9,399.5" fill="var(--g00)" stroke="var(--g00)" stroke-width="1.5" stroke-linejoin="round"/><polygon points="45.4,406.3 51.1,360.1 57.4,357.6 72.2,362.3 88.7,382.1 57.3,424.3 55.0,422.7" fill="var(--g01)" stroke="var(--g01)" stroke-width="1.5" stroke-linejoin="round"/><polygon points="72.2,362.3 108.2,343.2 118.7,348.7 130.0,363.7 123.2,379.5 102.6,386.6 88.7,382.1" fill="var(--g04)" stroke="var(--g04)" stroke-width="1.5" stroke-linejoin="round"/><polygon points="123.2,379.5 130.0,363.7 162.3,356.5 165.1,393.5 164.8,394.2 137.9,406.8" fill="var(--g01)" stroke="var(--g01)" stroke-width="1.5" stroke-linejoin="round"/><polygon points="165.1,393.5 162.3,356.5 167.6,352.3 201.8,365.9 201.9,390.6" fill="var(--g04)" stroke="var(--g04)" stroke-width="1.5" stroke-linejoin="round"/><polygon points="207.6,405.9 201.9,390.6 201.8,365.9 210.9,360.5 241.2,363.1 248.9,369.4 252.6,379.4 241.7,390.4" fill="var(--g02)" stroke="var(--g02)" stroke-width="1.5" stroke-linejoin="round"/><polygon points="252.6,379.4 248.9,369.4 271.8,350.5 287.3,363.9 276.7,386.1 268.8,390.2" fill="var(--g00)" stroke="var(--g00)" stroke-width="1.5" stroke-linejoin="round"/><polygon points="276.7,386.1 287.3,363.9 309.7,356.3 316.7,386.1" fill="var(--g04)" stroke="var(--g04)" stroke-width="1.5" stroke-linejoin="round"/><polygon points="316.7,386.1 309.7,356.3 314.4,337.7 359.7,369.3 353.4,387.9 348.2,394.1 323.1,393.0" fill="var(--g02)" stroke="var(--g02)" stroke-width="1.5" stroke-linejoin="round"/><polygon points="353.4,387.9 359.7,369.3 371.5,356.9 385.8,356.1 411.0,391.3 398.8,397.0" fill="var(--g03)" stroke="var(--g03)" stroke-width="1.5" stroke-linejoin="round"/><polygon points="385.8,356.1 392.5,350.5 428.9,341.8 432.7,345.9 434.2,395.6 411.0,391.3" fill="var(--g02)" stroke="var(--g02)" stroke-width="1.5" stroke-linejoin="round"/><polygon points="434.2,395.6 432.7,345.9 468.8,343.1 476.1,363.2 455.4,395.3 436.1,397.6" fill="var(--g00)" stroke="var(--g00)" stroke-width="1.5" stroke-linejoin="round"/><polygon points="8.4,438.6 11.9,399.5 45.4,406.3 55.0,422.7" fill="var(--g02)" stroke="var(--g02)" stroke-width="1.5" stroke-linejoin="round"/><polygon points="57.3,424.3 88.7,382.1 102.6,386.6 98.1,423.6 94.8,426.3 58.6,426.1" fill="var(--g04)" stroke="var(--g04)" stroke-width="1.5" stroke-linejoin="round"/><polygon points="98.1,423.6 102.6,386.6 123.2,379.5 137.9,406.8 137.1,415.8 130.6,421.3" fill="var(--g04)" stroke="var(--g04)" stroke-width="1.5" stroke-linejoin="round"/><polygon points="137.1,415.8 137.9,406.8 164.8,394.2 181.7,426.1 170.3,436.1" fill="var(--g02)" stroke="var(--g02)" stroke-width="1.5" stroke-linejoin="round"/><polygon points="181.7,426.1 164.8,394.2 165.1,393.5 201.9,390.6 207.6,405.9 206.2,418.4" fill="var(--g00)" stroke="var(--g00)" stroke-width="1.5" stroke-linejoin="round"/><polygon points="206.2,418.4 207.6,405.9 241.7,390.4 242.5,427.5 210.5,422.7" fill="var(--g04)" stroke="var(--g04)" stroke-width="1.5" stroke-linejoin="round"/><polygon points="242.5,427.5 241.7,390.4 252.6,379.4 268.8,390.2 275.5,430.1 246.2,429.3" fill="var(--g04)" stroke="var(--g04)" stroke-width="1.5" stroke-linejoin="round"/><polygon points="275.5,430.1 268.8,390.2 276.7,386.1 316.7,386.1 323.1,393.0 297.5,431.6 276.0,430.5" fill="var(--g04)" stroke="var(--g04)" stroke-width="1.5" stroke-linejoin="round"/><polygon points="297.5,431.6 323.1,393.0 348.2,394.1 360.0,429.4 299.7,433.6" fill="var(--g02)" stroke="var(--g02)" stroke-width="1.5" stroke-linejoin="round"/><polygon points="360.0,429.4 348.2,394.1 353.4,387.9 398.8,397.0 377.0,435.4 363.2,433.9" fill="var(--g02)" stroke="var(--g02)" stroke-width="1.5" stroke-linejoin="round"/><polygon points="377.0,435.4 398.8,397.0 411.0,391.3 434.2,395.6 436.1,397.6 430.8,429.3 420.6,441.5 387.7,441.4" fill="var(--g01)" stroke="var(--g01)" stroke-width="1.5" stroke-linejoin="round"/><polygon points="430.8,429.3 436.1,397.6 455.4,395.3 480.8,407.7 479.4,441.7 474.4,451.0" fill="var(--g04)" stroke="var(--g04)" stroke-width="1.5" stroke-linejoin="round"/><polygon points="12.2,470.5 6.4,440.4 8.4,438.6 55.0,422.7 57.3,424.3 58.6,426.1 57.2,461.6 44.7,470.0 19.0,475.0" fill="var(--g02)" stroke="var(--g02)" stroke-width="1.5" stroke-linejoin="round"/><polygon points="57.2,461.6 58.6,426.1 94.8,426.3 106.1,457.0 81.9,477.1" fill="var(--g04)" stroke="var(--g04)" stroke-width="1.5" stroke-linejoin="round"/><polygon points="106.1,457.0 94.8,426.3 98.1,423.6 130.6,421.3 128.8,460.8" fill="var(--g04)" stroke="var(--g04)" stroke-width="1.5" stroke-linejoin="round"/><polygon points="128.8,460.8 130.6,421.3 137.1,415.8 170.3,436.1 167.1,457.2 163.8,459.4 133.2,464.9" fill="var(--g03)" stroke="var(--g03)" stroke-width="1.5" stroke-linejoin="round"/><polygon points="167.1,457.2 170.3,436.1 181.7,426.1 206.2,418.4 210.5,422.7 214.1,465.9 200.9,476.2" fill="var(--g03)" stroke="var(--g03)" stroke-width="1.5" stroke-linejoin="round"/><polygon points="214.1,465.9 210.5,422.7 242.5,427.5 246.2,429.3 231.1,467.3" fill="var(--g00)" stroke="var(--g00)" stroke-width="1.5" stroke-linejoin="round"/><polygon points="231.1,467.3 246.2,429.3 275.5,430.1 276.0,430.5 266.1,467.3 233.7,468.7" fill="var(--g02)" stroke="var(--g02)" stroke-width="1.5" stroke-linejoin="round"/><polygon points="279.8,494.8 266.1,467.3 276.0,430.5 297.5,431.6 299.7,433.6 321.3,471.3 321.0,472.5" fill="var(--g04)" stroke="var(--g04)" stroke-width="1.5" stroke-linejoin="round"/><polygon points="321.3,471.3 299.7,433.6 360.0,429.4 363.2,433.9 354.0,449.7" fill="var(--g02)" stroke="var(--g02)" stroke-width="1.5" stroke-linejoin="round"/><polygon points="354.0,449.7 363.2,433.9 377.0,435.4 387.7,441.4 387.3,473.2 369.6,484.2" fill="var(--g02)" stroke="var(--g02)" stroke-width="1.5" stroke-linejoin="round"/><polygon points="387.3,473.2 387.7,441.4 420.6,441.5 423.3,454.4 401.9,481.6" fill="var(--g02)" stroke="var(--g02)" stroke-width="1.5" stroke-linejoin="round"/><polygon points="423.3,454.4 420.6,441.5 430.8,429.3 474.4,451.0 478.4,475.5 477.6,476.5 439.7,477.2" fill="var(--g02)" stroke="var(--g02)" stroke-width="1.5" stroke-linejoin="round"/><polygon points="117.1,560.0 108.3,560.0 81.9,477.1 106.1,457.0 128.8,460.8 133.2,464.9" fill="var(--g04)" stroke="var(--g04)" stroke-width="1.5" stroke-linejoin="round"/><polygon points="158.6,560.0 117.1,560.0 133.2,464.9 163.8,459.4" fill="var(--g02)" stroke="var(--g02)" stroke-width="1.5" stroke-linejoin="round"/><polygon points="195.5,560.0 158.6,560.0 163.8,459.4 167.1,457.2 200.9,476.2" fill="var(--g02)" stroke="var(--g02)" stroke-width="1.5" stroke-linejoin="round"/><polygon points="260.5,560.0 253.3,560.0 233.7,468.7 266.1,467.3 279.8,494.8" fill="var(--g00)" stroke="var(--g00)" stroke-width="1.5" stroke-linejoin="round"/><polygon points="355.0,522.4 321.0,472.5 321.3,471.3 354.0,449.7 369.6,484.2" fill="var(--g04)" stroke="var(--g04)" stroke-width="1.5" stroke-linejoin="round"/><polygon points="414.6,519.8 401.9,481.6 423.3,454.4 439.7,477.2" fill="var(--g02)" stroke="var(--g02)" stroke-width="1.5" stroke-linejoin="round"/></g><g clip-path="url(#r1)"><polygon points="80.9,202.4 89.2,169.8 110.4,170.9 124.5,180.6 128.5,219.5" fill="var(--g14)" stroke="var(--g14)" stroke-width="1.5" stroke-linejoin="round"/><polygon points="128.5,219.5 124.5,180.6 156.8,173.0 164.6,209.7 130.2,222.1" fill="var(--g14)" stroke="var(--g14)" stroke-width="1.5" stroke-linejoin="round"/><polygon points="164.6,209.7 156.8,173.0 164.8,161.0 193.2,160.7 196.4,165.9 205.9,194.2 170.2,212.0" fill="var(--g10)" stroke="var(--g10)" stroke-width="1.5" stroke-linejoin="round"/><polygon points="205.9,194.2 196.4,165.9 251.7,164.8 245.8,202.2 244.3,203.7 214.5,199.5" fill="var(--g14)" stroke="var(--g14)" stroke-width="1.5" stroke-linejoin="round"/><polygon points="245.8,202.2 251.7,164.8 253.5,160.3 281.3,159.7 295.9,201.0" fill="var(--g13)" stroke="var(--g13)" stroke-width="1.5" stroke-linejoin="round"/><polygon points="295.9,201.0 281.3,159.7 288.9,154.1 320.4,171.9 318.3,197.0 311.0,202.7 297.8,201.8" fill="var(--g12)" stroke="var(--g12)" stroke-width="1.5" stroke-linejoin="round"/><polygon points="318.3,197.0 320.4,171.9 331.4,155.5 355.2,160.3 362.6,172.2 342.9,199.2" fill="var(--g11)" stroke="var(--g11)" stroke-width="1.5" stroke-linejoin="round"/><polygon points="342.9,199.2 362.6,172.2 393.4,179.2 392.7,187.7 388.6,196.0 358.0,213.5" fill="var(--g12)" stroke="var(--g12)" stroke-width="1.5" stroke-linejoin="round"/><polygon points="126.4,241.0 130.2,222.1 164.6,209.7 170.2,212.0 180.2,238.5 166.3,250.7 128.4,247.5" fill="var(--g12)" stroke="var(--g12)" stroke-width="1.5" stroke-linejoin="round"/><polygon points="180.2,238.5 170.2,212.0 205.9,194.2 214.5,199.5 198.2,244.3" fill="var(--g13)" stroke="var(--g13)" stroke-width="1.5" stroke-linejoin="round"/><polygon points="198.2,244.3 214.5,199.5 244.3,203.7 247.3,235.2 207.9,254.9" fill="var(--g12)" stroke="var(--g12)" stroke-width="1.5" stroke-linejoin="round"/><polygon points="247.3,235.2 244.3,203.7 245.8,202.2 295.9,201.0 297.8,201.8 277.8,243.6 270.9,249.4 259.1,247.6" fill="var(--g13)" stroke="var(--g13)" stroke-width="1.5" stroke-linejoin="round"/><polygon points="277.8,243.6 297.8,201.8 311.0,202.7 318.0,235.7" fill="var(--g13)" stroke="var(--g13)" stroke-width="1.5" stroke-linejoin="round"/><polygon points="318.0,235.7 311.0,202.7 318.3,197.0 342.9,199.2 358.0,213.5 360.6,234.5 353.0,248.2 320.9,240.2" fill="var(--g13)" stroke="var(--g13)" stroke-width="1.5" stroke-linejoin="round"/><polygon points="125.4,261.9 128.4,247.5 166.3,250.7 169.9,273.1 165.8,276.7 137.1,276.3" fill="var(--g12)" stroke="var(--g12)" stroke-width="1.5" stroke-linejoin="round"/><polygon points="169.9,273.1 166.3,250.7 180.2,238.5 198.2,244.3 207.9,254.9 206.6,280.7" fill="var(--g13)" stroke="var(--g13)" stroke-width="1.5" stroke-linejoin="round"/><polygon points="206.6,280.7 207.9,254.9 247.3,235.2 259.1,247.6 250.2,272.5 207.2,282.2" fill="var(--g13)" stroke="var(--g13)" stroke-width="1.5" stroke-linejoin="round"/><polygon points="250.2,272.5 259.1,247.6 270.9,249.4 298.9,279.0 298.1,279.7 256.2,288.2" fill="var(--g12)" stroke="var(--g12)" stroke-width="1.5" stroke-linejoin="round"/><polygon points="270.9,249.4 277.8,243.6 318.0,235.7 320.9,240.2 300.7,279.1 298.9,279.0" fill="var(--g12)" stroke="var(--g12)" stroke-width="1.5" stroke-linejoin="round"/><polygon points="300.7,279.1 320.9,240.2 353.0,248.2 360.8,274.9 357.4,280.6 324.1,295.4" fill="var(--g12)" stroke="var(--g12)" stroke-width="1.5" stroke-linejoin="round"/><polygon points="103.2,307.2 100.0,278.8 125.4,261.9 137.1,276.3 141.3,309.0" fill="var(--g11)" stroke="var(--g11)" stroke-width="1.5" stroke-linejoin="round"/><polygon points="141.3,309.0 137.1,276.3 165.8,276.7 164.1,317.1 141.7,309.4" fill="var(--g14)" stroke="var(--g14)" stroke-width="1.5" stroke-linejoin="round"/><polygon points="164.1,317.1 165.8,276.7 169.9,273.1 206.6,280.7 207.2,282.2 207.6,303.0 168.7,320.8" fill="var(--g13)" stroke="var(--g13)" stroke-width="1.5" stroke-linejoin="round"/><polygon points="207.6,303.0 207.2,282.2 250.2,272.5 256.2,288.2 250.4,314.8 246.8,316.1 216.1,310.2" fill="var(--g10)" stroke="var(--g10)" stroke-width="1.5" stroke-linejoin="round"/><polygon points="250.4,314.8 256.2,288.2 298.1,279.7 271.9,320.7" fill="var(--g13)" stroke="var(--g13)" stroke-width="1.5" stroke-linejoin="round"/><polygon points="271.9,320.7 298.1,279.7 298.9,279.0 300.7,279.1 324.1,295.4 321.6,325.4 314.1,335.9 279.1,328.6" fill="var(--g13)" stroke="var(--g13)" stroke-width="1.5" stroke-linejoin="round"/><polygon points="321.6,325.4 324.1,295.4 357.4,280.6 370.8,312.5 361.5,331.5" fill="var(--g11)" stroke="var(--g11)" stroke-width="1.5" stroke-linejoin="round"/><polygon points="108.2,343.2 97.2,315.9 103.2,307.2 141.3,309.0 141.7,309.4 118.7,348.7" fill="var(--g14)" stroke="var(--g14)" stroke-width="1.5" stroke-linejoin="round"/><polygon points="118.7,348.7 141.7,309.4 164.1,317.1 168.7,320.8 167.6,352.3 162.3,356.5 130.0,363.7" fill="var(--g14)" stroke="var(--g14)" stroke-width="1.5" stroke-linejoin="round"/><polygon points="167.6,352.3 168.7,320.8 207.6,303.0 216.1,310.2 210.9,360.5 201.8,365.9" fill="var(--g10)" stroke="var(--g10)" stroke-width="1.5" stroke-linejoin="round"/><polygon points="210.9,360.5 216.1,310.2 246.8,316.1 241.2,363.1" fill="var(--g12)" stroke="var(--g12)" stroke-width="1.5" stroke-linejoin="round"/><polygon points="241.2,363.1 246.8,316.1 250.4,314.8 271.9,320.7 279.1,328.6 271.8,350.5 248.9,369.4" fill="var(--g11)" stroke="var(--g11)" stroke-width="1.5" stroke-linejoin="round"/><polygon points="314.4,337.7 314.1,335.9 321.6,325.4 361.5,331.5 371.5,356.9 359.7,369.3" fill="var(--g12)" stroke="var(--g12)" stroke-width="1.5" stroke-linejoin="round"/></g></svg>
