<svg xmlns="http://www.w3.org/2000/svg" viewBox="0 0 480 480"><style>:root{--ground:#f7f3e9;--g00:#dcbf61;--g01:#d9b960;--g02:#dab855;--g03:#d5af3a;--g04:#cfa83d;--g10:#caa025;--g11:#cd9e24;--g12:#b58f23;--g13:#a5791c;--g14:#9f781e}</style><defs><clipPath id="r0"><path d="M148 250a92 92 0 1 0 184 0a92 92 0 1 0 -184 0Z"/></clipPath><clipPath id="r1"><path d="M240 70L285.2 141L367.3 122.7L349 204.8L420 250L349 295.2L367.3 377.3L285.2 359L240 430L194.8 359L112.7 377.3L131 295.2L60 250L131 204.8L112.7 122.7L194.8 141Z"/></clipPath></defs><rect x="8" y="8" width="464" height="464" rx="82" fill="var(--ground)"/><g clip-path="url(#r0)"><polygon points="20.6,109.4 19.8,99.6 21.6,97.4 47.3,91.0 64.2,97.3 66.8,123.1 56.3,137.5" fill="var(--g02)" stroke="var(--g02)" stroke-width="1.5" stroke-linejoin="round"/><polygon points="157.2,117.0 167.6,95.9 208.1,102.2 211.4,105.0 209.6,129.5 206.9,137.0 162.9,129.8" fill="var(--g00)" stroke="var(--g00)" stroke-width="1.5" stroke-linejoin="round"/><polygon points="209.6,129.5 211.4,105.0 226.7,97.5 234.4,99.8 253.7,126.2" fill="var(--g02)" stroke="var(--g02)" stroke-width="1.5" stroke-linejoin="round"/><polygon points="7.6,131.6 20.6,109.4 56.3,137.5 54.1,158.7 53.2,159.2 16.7,154.6" fill="var(--g00)" stroke="var(--g00)" stroke-width="1.5" stroke-linejoin="round"/><polygon points="54.1,158.7 56.3,137.5 66.8,123.1 98.7,123.1 100.1,165.3 85.8,173.0" fill="var(--g02)" stroke="var(--g02)" stroke-width="1.5" stroke-linejoin="round"/><polygon points="100.1,165.3 98.7,123.1 99.0,122.9 123.7,118.8 129.4,160.8 120.6,165.3" fill="var(--g01)" stroke="var(--g01)" stroke-width="1.5" stroke-linejoin="round"/><polygon points="129.4,160.8 123.7,118.8 128.5,114.0 157.2,117.0 162.9,129.8 150.8,161.1" fill="var(--g04)" stroke="var(--g04)" stroke-width="1.5" stroke-linejoin="round"/><polygon points="150.8,161.1 162.9,129.8 206.9,137.0 211.7,157.2 198.0,169.2 155.0,165.6" fill="var(--g02)" stroke="var(--g02)" stroke-width="1.5" stroke-linejoin="round"/><polygon points="211.7,157.2 206.9,137.0 209.6,129.5 253.7,126.2 266.5,132.4 265.7,134.8 237.8,168.7" fill="var(--g04)" stroke="var(--g04)" stroke-width="1.5" stroke-linejoin="round"/><polygon points="237.8,168.7 265.7,134.8 290.3,174.1 241.8,175.7" fill="var(--g01)" stroke="var(--g01)" stroke-width="1.5" stroke-linejoin="round"/><polygon points="265.7,134.8 266.5,132.4 279.8,120.8 313.7,138.1 306.3,170.3 293.3,175.3 290.3,174.1" fill="var(--g02)" stroke="var(--g02)" stroke-width="1.5" stroke-linejoin="round"/><polygon points="306.3,170.3 313.7,138.1 331.0,129.9 357.1,138.0 359.1,139.1 359.4,155.8 327.5,185.4" fill="var(--g02)" stroke="var(--g02)" stroke-width="1.5" stroke-linejoin="round"/><polygon points="359.4,155.8 359.1,139.1 396.6,123.1 401.7,126.0 398.9,171.3 370.8,172.9" fill="var(--g03)" stroke="var(--g03)" stroke-width="1.5" stroke-linejoin="round"/><polygon points="398.9,171.3 401.7,126.0 431.9,130.8 437.4,145.1 420.9,176.5 404.7,177.6" fill="var(--g03)" stroke="var(--g03)" stroke-width="1.5" stroke-linejoin="round"/><polygon points="437.4,145.1 431.9,130.8 439.1,123.7 472.9,120.9 484.9,129.2 473.0,170.1 469.2,171.5" fill="var(--g03)" stroke="var(--g03)" stroke-width="1.5" stroke-linejoin="round"/><polygon points="5.1,193.8 10.5,160.1 16.7,154.6 53.2,159.2 32.9,204.8" fill="var(--g01)" stroke="var(--g01)" stroke-width="1.5" stroke-linejoin="round"/><polygon points="32.9,204.8 53.2,159.2 54.1,158.7 85.8,173.0 86.9,194.4 78.3,212.0 52.7,215.4 34.9,209.4" fill="var(--g04)" stroke="var(--g04)" stroke-width="1.5" stroke-linejoin="round"/><polygon points="86.9,194.4 85.8,173.0 100.1,165.3 120.6,165.3 130.1,209.7 128.6,213.0" fill="var(--g03)" stroke="var(--g03)" stroke-width="1.5" stroke-linejoin="round"/><polygon points="130.1,209.7 120.6,165.3 129.4,160.8 150.8,161.1 155.0,165.6 156.6,191.4" fill="var(--g03)" stroke="var(--g03)" stroke-width="1.5" stroke-linejoin="round"/><polygon points="156.6,191.4 155.0,165.6 198.0,169.2 190.9,206.6 179.9,209.8" fill="var(--g03)" stroke="var(--g03)" stroke-width="1.5" stroke-linejoin="round"/><polygon points="190.9,206.6 198.0,169.2 211.7,157.2 237.8,168.7 241.8,175.7 243.0,194.5 235.6,208.5 208.7,217.5" fill="var(--g03)" stroke="var(--g03)" stroke-width="1.5" stroke-linejoin="round"/><polygon points="243.0,194.5 241.8,175.7 290.3,174.1 293.3,175.3 287.8,195.7 275.2,206.1" fill="var(--g00)" stroke="var(--g00)" stroke-width="1.5" stroke-linejoin="round"/><polygon points="287.8,195.7 293.3,175.3 306.3,170.3 327.5,185.4 330.7,195.0 318.6,224.0" fill="var(--g00)" stroke="var(--g00)" stroke-width="1.5" stroke-linejoin="round"/><polygon points="330.7,195.0 327.5,185.4 359.4,155.8 370.8,172.9 369.3,202.6" fill="var(--g01)" stroke="var(--g01)" stroke-width="1.5" stroke-linejoin="round"/><polygon points="369.3,202.6 370.8,172.9 398.9,171.3 404.7,177.6 395.2,208.1 387.2,212.9 375.0,210.3" fill="var(--g01)" stroke="var(--g01)" stroke-width="1.5" stroke-linejoin="round"/><polygon points="395.2,208.1 404.7,177.6 420.9,176.5 440.1,201.6 434.8,210.2" fill="var(--g00)" stroke="var(--g00)" stroke-width="1.5" stroke-linejoin="round"/><polygon points="420.9,176.5 437.4,145.1 469.2,171.5 460.3,192.0 440.1,201.6" fill="var(--g03)" stroke="var(--g03)" stroke-width="1.5" stroke-linejoin="round"/><polygon points="21.2,237.4 34.9,209.4 52.7,215.4 58.3,250.5 56.4,251.4 26.4,247.7" fill="var(--g00)" stroke="var(--g00)" stroke-width="1.5" stroke-linejoin="round"/><polygon points="58.3,250.5 52.7,215.4 78.3,212.0 89.1,234.8 83.2,253.4" fill="var(--g00)" stroke="var(--g00)" stroke-width="1.5" stroke-linejoin="round"/><polygon points="78.3,212.0 86.9,194.4 128.6,213.0 130.1,226.7 89.1,234.8" fill="var(--g02)" stroke="var(--g02)" stroke-width="1.5" stroke-linejoin="round"/><polygon points="130.1,226.7 128.6,213.0 130.1,209.7 156.6,191.4 179.9,209.8 159.6,239.6 134.4,232.0" fill="var(--g01)" stroke="var(--g01)" stroke-width="1.5" stroke-linejoin="round"/><polygon points="159.6,239.6 179.9,209.8 190.9,206.6 208.7,217.5 208.4,249.7 206.8,251.1 160.7,241.7" fill="var(--g03)" stroke="var(--g03)" stroke-width="1.5" stroke-linejoin="round"/><polygon points="208.4,249.7 208.7,217.5 235.6,208.5 251.9,239.5 239.7,255.6" fill="var(--g04)" stroke="var(--g04)" stroke-width="1.5" stroke-linejoin="round"/><polygon points="235.6,208.5 243.0,194.5 275.2,206.1 279.0,238.0 251.9,239.5" fill="var(--g02)" stroke="var(--g02)" stroke-width="1.5" stroke-linejoin="round"/><polygon points="279.0,238.0 275.2,206.1 287.8,195.7 318.6,224.0 318.3,234.4 284.7,241.4" fill="var(--g04)" stroke="var(--g04)" stroke-width="1.5" stroke-linejoin="round"/><polygon points="318.3,234.4 318.6,224.0 330.7,195.0 369.3,202.6 375.0,210.3 348.2,242.7 320.9,236.7" fill="var(--g01)" stroke="var(--g01)" stroke-width="1.5" stroke-linejoin="round"/><polygon points="348.2,242.7 375.0,210.3 387.2,212.9 399.4,245.9 359.1,258.8" fill="var(--g04)" stroke="var(--g04)" stroke-width="1.5" stroke-linejoin="round"/><polygon points="399.4,245.9 387.2,212.9 395.2,208.1 434.8,210.2 438.8,244.0 432.2,250.4 403.9,249.2" fill="var(--g03)" stroke="var(--g03)" stroke-width="1.5" stroke-linejoin="round"/><polygon points="438.8,244.0 434.8,210.2 440.1,201.6 460.3,192.0 482.0,218.0 476.4,243.6 472.4,246.4" fill="var(--g01)" stroke="var(--g01)" stroke-width="1.5" stroke-linejoin="round"/><polygon points="20.5,281.3 26.4,247.7 56.4,251.4 44.9,290.5" fill="var(--g04)" stroke="var(--g04)" stroke-width="1.5" stroke-linejoin="round"/><polygon points="44.9,290.5 56.4,251.4 58.3,250.5 83.2,253.4 95.3,280.5 92.0,285.4 50.1,295.1" fill="var(--g04)" stroke="var(--g04)" stroke-width="1.5" stroke-linejoin="round"/><polygon points="83.2,253.4 89.1,234.8 130.1,226.7 134.4,232.0 113.3,277.5 95.3,280.5" fill="var(--g03)" stroke="var(--g03)" stroke-width="1.5" stroke-linejoin="round"/><polygon points="113.3,277.5 134.4,232.0 159.6,239.6 160.7,241.7 161.7,276.6 126.7,283.1" fill="var(--g04)" stroke="var(--g04)" stroke-width="1.5" stroke-linejoin="round"/><polygon points="161.7,276.6 160.7,241.7 206.8,251.1 196.2,286.0 175.1,289.3" fill="var(--g00)" stroke="var(--g00)" stroke-width="1.5" stroke-linejoin="round"/><polygon points="196.2,286.0 206.8,251.1 208.4,249.7 239.7,255.6 246.1,281.8 207.2,293.3" fill="var(--g00)" stroke="var(--g00)" stroke-width="1.5" stroke-linejoin="round"/><polygon points="246.1,281.8 239.7,255.6 251.9,239.5 279.0,238.0 284.7,241.4 280.9,283.2 254.2,287.8" fill="var(--g04)" stroke="var(--g04)" stroke-width="1.5" stroke-linejoin="round"/><polygon points="280.9,283.2 284.7,241.4 318.3,234.4 320.9,236.7 317.1,282.8 310.2,287.5 288.6,288.4" fill="var(--g02)" stroke="var(--g02)" stroke-width="1.5" stroke-linejoin="round"/><polygon points="317.1,282.8 320.9,236.7 348.2,242.7 359.1,258.8 360.1,281.1 355.6,289.1" fill="var(--g01)" stroke="var(--g01)" stroke-width="1.5" stroke-linejoin="round"/><polygon points="360.1,281.1 359.1,258.8 399.4,245.9 403.9,249.2 394.1,279.9" fill="var(--g01)" stroke="var(--g01)" stroke-width="1.5" stroke-linejoin="round"/><polygon points="394.1,279.9 403.9,249.2 432.2,250.4 433.6,273.9 427.0,284.0 400.9,287.9" fill="var(--g01)" stroke="var(--g01)" stroke-width="1.5" stroke-linejoin="round"/><polygon points="433.6,273.9 432.2,250.4 438.8,244.0 472.4,246.4 476.0,289.4 469.6,293.6" fill="var(--g00)" stroke="var(--g00)" stroke-width="1.5" stroke-linejoin="round"/><polygon points="9.5,318.9 20.1,281.5 20.5,281.3 44.9,290.5 50.1,295.1 47.7,321.1" fill="var(--g03)" stroke="var(--g03)" stroke-width="1.5" stroke-linejoin="round"/><polygon points="53.6,338.7 47.7,321.1 50.1,295.1 92.0,285.4 96.4,317.4" fill="var(--g03)" stroke="var(--g03)" stroke-width="1.5" stroke-linejoin="round"/><polygon points="96.4,317.4 92.0,285.4 95.3,280.5 113.3,277.5 126.7,283.1 135.9,313.8 101.9,323.4" fill="var(--g04)" stroke="var(--g04)" stroke-width="1.5" stroke-linejoin="round"/><polygon points="135.9,313.8 126.7,283.1 161.7,276.6 175.1,289.3 170.4,303.1 151.3,323.5 148.9,323.3" fill="var(--g03)" stroke="var(--g03)" stroke-width="1.5" stroke-linejoin="round"/><polygon points="170.4,303.1 175.1,289.3 196.2,286.0 207.2,293.3 214.9,321.8 202.7,345.8" fill="var(--g02)" stroke="var(--g02)" stroke-width="1.5" stroke-linejoin="round"/><polygon points="214.9,321.8 207.2,293.3 246.1,281.8 254.2,287.8 249.7,318.5" fill="var(--g00)" stroke="var(--g00)" stroke-width="1.5" stroke-linejoin="round"/><polygon points="249.7,318.5 254.2,287.8 280.9,283.2 288.6,288.4 287.7,316.2 253.4,323.9" fill="var(--g03)" stroke="var(--g03)" stroke-width="1.5" stroke-linejoin="round"/><polygon points="287.7,316.2 288.6,288.4 310.2,287.5 324.9,333.6 323.5,335.6 293.4,325.6" fill="var(--g04)" stroke="var(--g04)" stroke-width="1.5" stroke-linejoin="round"/><polygon points="324.9,333.6 310.2,287.5 317.1,282.8 355.6,289.1 359.0,313.9" fill="var(--g03)" stroke="var(--g03)" stroke-width="1.5" stroke-linejoin="round"/><polygon points="359.0,313.9 355.6,289.1 360.1,281.1 394.1,279.9 400.9,287.9 397.4,320.7 366.4,318.7" fill="var(--g01)" stroke="var(--g01)" stroke-width="1.5" stroke-linejoin="round"/><polygon points="397.4,320.7 400.9,287.9 427.0,284.0 431.7,315.3 417.8,325.6 405.5,326.6" fill="var(--g02)" stroke="var(--g02)" stroke-width="1.5" stroke-linejoin="round"/><polygon points="431.7,315.3 427.0,284.0 433.6,273.9 469.6,293.6 458.9,315.6" fill="var(--g00)" stroke="var(--g00)" stroke-width="1.5" stroke-linejoin="round"/><polygon points="9.2,347.2 5.2,322.6 9.5,318.9 47.7,321.1 53.6,338.7 51.6,351.6 26.9,353.8" fill="var(--g03)" stroke="var(--g03)" stroke-width="1.5" stroke-linejoin="round"/><polygon points="51.6,351.6 53.6,338.7 96.4,317.4 101.9,323.4 106.6,340.4 94.1,350.6 52.6,353.0" fill="var(--g02)" stroke="var(--g02)" stroke-width="1.5" stroke-linejoin="round"/><polygon points="106.6,340.4 101.9,323.4 135.9,313.8 148.9,323.3 120.6,349.3" fill="var(--g04)" stroke="var(--g04)" stroke-width="1.5" stroke-linejoin="round"/><polygon points="123.1,355.3 120.6,349.3 148.9,323.3 151.3,323.5 168.8,353.9" fill="var(--g03)" stroke="var(--g03)" stroke-width="1.5" stroke-linejoin="round"/><polygon points="151.3,323.5 170.4,303.1 202.7,345.8 201.7,352.3 176.3,360.8 168.8,353.9" fill="var(--g01)" stroke="var(--g01)" stroke-width="1.5" stroke-linejoin="round"/><polygon points="201.7,352.3 202.7,345.8 214.9,321.8 249.7,318.5 253.4,323.9 257.1,344.8 234.0,363.3 203.3,353.5" fill="var(--g04)" stroke="var(--g04)" stroke-width="1.5" stroke-linejoin="round"/><polygon points="257.1,344.8 253.4,323.9 287.7,316.2 293.4,325.6 272.3,350.4" fill="var(--g04)" stroke="var(--g04)" stroke-width="1.5" stroke-linejoin="round"/><polygon points="272.3,350.4 293.4,325.6 323.5,335.6 323.3,344.6 282.3,363.1" fill="var(--g00)" stroke="var(--g00)" stroke-width="1.5" stroke-linejoin="round"/><polygon points="323.3,344.6 323.5,335.6 324.9,333.6 359.0,313.9 366.4,318.7 368.2,357.2 358.3,362.0 330.2,359.8" fill="var(--g02)" stroke="var(--g02)" stroke-width="1.5" stroke-linejoin="round"/><polygon points="368.2,357.2 366.4,318.7 397.4,320.7 405.5,326.6 395.5,368.9" fill="var(--g00)" stroke="var(--g00)" stroke-width="1.5" stroke-linejoin="round"/><polygon points="395.5,368.9 405.5,326.6 417.8,325.6 441.2,359.8 396.7,371.3" fill="var(--g03)" stroke="var(--g03)" stroke-width="1.5" stroke-linejoin="round"/><polygon points="441.2,359.8 417.8,325.6 431.7,315.3 458.9,315.6 470.8,339.6 469.6,347.8 464.1,354.9 443.2,360.7" fill="var(--g02)" stroke="var(--g02)" stroke-width="1.5" stroke-linejoin="round"/><polygon points="-29.3,369.5 9.2,347.2 26.9,353.8 12.1,390.9 8.7,391.8" fill="var(--g00)" stroke="var(--g00)" stroke-width="1.5" stroke-linejoin="round"/><polygon points="12.1,390.9 26.9,353.8 51.6,351.6 52.6,353.0 60.7,384.3 47.3,399.9" fill="var(--g01)" stroke="var(--g01)" stroke-width="1.5" stroke-linejoin="round"/><polygon points="60.7,384.3 52.6,353.0 94.1,350.6 95.4,393.4" fill="var(--g00)" stroke="var(--g00)" stroke-width="1.5" stroke-linejoin="round"/><polygon points="95.4,393.4 94.1,350.6 106.6,340.4 120.6,349.3 123.1,355.3 122.7,384.2 105.8,395.0 96.6,394.1" fill="var(--g03)" stroke="var(--g03)" stroke-width="1.5" stroke-linejoin="round"/><polygon points="122.7,384.2 123.1,355.3 168.8,353.9 176.3,360.8 162.0,391.0" fill="var(--g02)" stroke="var(--g02)" stroke-width="1.5" stroke-linejoin="round"/><polygon points="169.2,410.6 162.0,391.0 176.3,360.8 201.7,352.3 203.3,353.5 209.1,405.8" fill="var(--g01)" stroke="var(--g01)" stroke-width="1.5" stroke-linejoin="round"/><polygon points="209.1,405.8 203.3,353.5 234.0,363.3 242.7,386.1 211.1,406.7" fill="var(--g02)" stroke="var(--g02)" stroke-width="1.5" stroke-linejoin="round"/><polygon points="242.7,386.1 234.0,363.3 257.1,344.8 272.3,350.4 282.3,363.1 283.1,385.7 267.5,396.2 258.6,397.2" fill="var(--g03)" stroke="var(--g03)" stroke-width="1.5" stroke-linejoin="round"/><polygon points="283.1,385.7 282.3,363.1 323.3,344.6 330.2,359.8 322.7,395.2 318.9,397.1" fill="var(--g02)" stroke="var(--g02)" stroke-width="1.5" stroke-linejoin="round"/><polygon points="322.7,395.2 330.2,359.8 358.3,362.0 361.3,402.7 354.1,405.9" fill="var(--g01)" stroke="var(--g01)" stroke-width="1.5" stroke-linejoin="round"/><polygon points="361.3,402.7 358.3,362.0 368.2,357.2 395.5,368.9 396.7,371.3 396.4,399.7" fill="var(--g03)" stroke="var(--g03)" stroke-width="1.5" stroke-linejoin="round"/><polygon points="396.4,399.7 396.7,371.3 441.2,359.8 443.2,360.7 437.4,395.6 430.1,399.8 397.5,400.8" fill="var(--g04)" stroke="var(--g04)" stroke-width="1.5" stroke-linejoin="round"/><polygon points="437.4,395.6 443.2,360.7 464.1,354.9 477.0,392.9 471.0,403.6" fill="var(--g02)" stroke="var(--g02)" stroke-width="1.5" stroke-linejoin="round"/></g><g clip-path="url(#r1)"><polygon points="8.9,23.6 8.9,23.6 49.9,5.3 49.9,47.6 48.2,48.5 33.1,49.6" fill="var(--g10)" stroke="var(--g10)" stroke-width="1.5" stroke-linejoin="round"/><polygon points="49.9,5.3 50.1,4.8 83.1,16.2 86.0,53.5 49.9,47.6" fill="var(--g11)" stroke="var(--g11)" stroke-width="1.5" stroke-linejoin="round"/><polygon points="86.0,53.5 83.1,16.2 99.9,-2.1 118.7,11.6 127.9,29.2 127.7,31.8 119.5,40.8 86.6,54.0" fill="var(--g14)" stroke="var(--g14)" stroke-width="1.5" stroke-linejoin="round"/><polygon points="127.7,31.8 127.9,29.2 165.5,0.1 178.0,23.4 177.1,51.5 171.9,54.5" fill="var(--g13)" stroke="var(--g13)" stroke-width="1.5" stroke-linejoin="round"/><polygon points="177.1,51.5 178.0,23.4 216.7,10.4 213.8,49.4 196.5,55.6" fill="var(--g10)" stroke="var(--g10)" stroke-width="1.5" stroke-linejoin="round"/><polygon points="213.8,49.4 216.7,10.4 217.6,9.0 240.3,0.0 249.0,6.3 246.3,55.7 239.5,57.8" fill="var(--g12)" stroke="var(--g12)" stroke-width="1.5" stroke-linejoin="round"/><polygon points="246.3,55.7 249.0,6.3 279.1,7.6 286.9,39.8 261.5,60.3" fill="var(--g12)" stroke="var(--g12)" stroke-width="1.5" stroke-linejoin="round"/><polygon points="286.9,39.8 279.1,7.6 286.8,0.4 327.3,17.5 327.5,32.7 307.4,46.6" fill="var(--g14)" stroke="var(--g14)" stroke-width="1.5" stroke-linejoin="round"/><polygon points="356.2,69.7 351.0,47.1 371.8,27.1 389.4,26.9 408.1,51.1 399.9,62.8" fill="var(--g10)" stroke="var(--g10)" stroke-width="1.5" stroke-linejoin="round"/><polygon points="417.6,49.7 434.0,17.6 441.6,9.6 473.2,27.5 473.3,35.9 439.6,61.0" fill="var(--g14)" stroke="var(--g14)" stroke-width="1.5" stroke-linejoin="round"/><polygon points="21.6,97.4 19.4,64.0 33.1,49.6 48.2,48.5 47.3,91.0" fill="var(--g13)" stroke="var(--g13)" stroke-width="1.5" stroke-linejoin="round"/><polygon points="47.3,91.0 48.2,48.5 49.9,47.6 86.0,53.5 86.6,54.0 89.3,76.6 64.2,97.3" fill="var(--g14)" stroke="var(--g14)" stroke-width="1.5" stroke-linejoin="round"/><polygon points="89.3,76.6 86.6,54.0 119.5,40.8 135.6,77.4 122.8,88.6 92.6,79.4" fill="var(--g14)" stroke="var(--g14)" stroke-width="1.5" stroke-linejoin="round"/><polygon points="119.5,40.8 127.7,31.8 171.9,54.5 161.5,75.5 135.6,77.4" fill="var(--g11)" stroke="var(--g11)" stroke-width="1.5" stroke-linejoin="round"/><polygon points="161.5,75.5 171.9,54.5 177.1,51.5 196.5,55.6 208.1,102.2 167.6,95.9" fill="var(--g14)" stroke="var(--g14)" stroke-width="1.5" stroke-linejoin="round"/><polygon points="208.1,102.2 196.5,55.6 213.8,49.4 239.5,57.8 226.7,97.5 211.4,105.0" fill="var(--g12)" stroke="var(--g12)" stroke-width="1.5" stroke-linejoin="round"/><polygon points="226.7,97.5 239.5,57.8 246.3,55.7 261.5,60.3 278.4,92.8 234.4,99.8" fill="var(--g14)" stroke="var(--g14)" stroke-width="1.5" stroke-linejoin="round"/><polygon points="261.5,60.3 286.9,39.8 307.4,46.6 311.8,81.5 280.0,94.1 278.4,92.8" fill="var(--g14)" stroke="var(--g14)" stroke-width="1.5" stroke-linejoin="round"/><polygon points="311.8,81.5 307.4,46.6 327.5,32.7 351.0,47.1 356.2,69.7 353.4,75.7 326.7,87.6" fill="var(--g11)" stroke="var(--g11)" stroke-width="1.5" stroke-linejoin="round"/><polygon points="353.4,75.7 356.2,69.7 399.9,62.8 402.8,89.0 395.4,115.5 355.7,79.3" fill="var(--g14)" stroke="var(--g14)" stroke-width="1.5" stroke-linejoin="round"/><polygon points="402.8,89.0 399.9,62.8 408.1,51.1 417.6,49.7 439.6,61.0 447.9,82.3 445.5,86.6" fill="var(--g13)" stroke="var(--g13)" stroke-width="1.5" stroke-linejoin="round"/><polygon points="447.9,82.3 439.6,61.0 473.3,35.9 484.2,49.9 478.5,83.6" fill="var(--g10)" stroke="var(--g10)" stroke-width="1.5" stroke-linejoin="round"/><polygon points="20.6,109.4 19.8,99.6 21.6,97.4 47.3,91.0 64.2,97.3 66.8,123.1 56.3,137.5" fill="var(--g12)" stroke="var(--g12)" stroke-width="1.5" stroke-linejoin="round"/><polygon points="66.8,123.1 64.2,97.3 89.3,76.6 92.6,79.4 99.0,122.9 98.7,123.1" fill="var(--g14)" stroke="var(--g14)" stroke-width="1.5" stroke-linejoin="round"/><polygon points="99.0,122.9 92.6,79.4 122.8,88.6 128.5,114.0 123.7,118.8" fill="var(--g14)" stroke="var(--g14)" stroke-width="1.5" stroke-linejoin="round"/><polygon points="128.5,114.0 122.8,88.6 135.6,77.4 161.5,75.5 167.6,95.9 157.2,117.0" fill="var(--g14)" stroke="var(--g14)" stroke-width="1.5" stroke-linejoin="round"/><polygon points="157.2,117.0 167.6,95.9 208.1,102.2 211.4,105.0 209.6,129.5 206.9,137.0 162.9,129.8" fill="var(--g10)" stroke="var(--g10)" stroke-width="1.5" stroke-linejoin="round"/><polygon points="209.6,129.5 211.4,105.0 226.7,97.5 234.4,99.8 253.7,126.2" fill="var(--g12)" stroke="var(--g12)" stroke-width="1.5" stroke-linejoin="round"/><polygon points="234.4,99.8 278.4,92.8 280.0,94.1 279.8,120.8 266.5,132.4 253.7,126.2" fill="var(--g14)" stroke="var(--g14)" stroke-width="1.5" stroke-linejoin="round"/><polygon points="279.8,120.8 280.0,94.1 311.8,81.5 326.7,87.6 331.0,129.9 313.7,138.1" fill="var(--g12)" stroke="var(--g12)" stroke-width="1.5" stroke-linejoin="round"/><polygon points="331.0,129.9 326.7,87.6 353.4,75.7 355.7,79.3 357.1,138.0" fill="var(--g11)" stroke="var(--g11)" stroke-width="1.5" stroke-linejoin="round"/><polygon points="357.1,138.0 355.7,79.3 395.4,115.5 396.6,123.1 359.1,139.1" fill="var(--g12)" stroke="var(--g12)" stroke-width="1.5" stroke-linejoin="round"/><polygon points="396.6,123.1 395.4,115.5 402.8,89.0 445.5,86.6 439.1,123.7 431.9,130.8 401.7,126.0" fill="var(--g11)" stroke="var(--g11)" stroke-width="1.5" stroke-linejoin="round"/><polygon points="439.1,123.7 445.5,86.6 447.9,82.3 478.5,83.6 480.7,85.8 472.9,120.9" fill="var(--g12)" stroke="var(--g12)" stroke-width="1.5" stroke-linejoin="round"/><polygon points="7.6,131.6 20.6,109.4 56.3,137.5 54.1,158.7 53.2,159.2 16.7,154.6" fill="var(--g10)" stroke="var(--g10)" stroke-width="1.5" stroke-linejoin="round"/><polygon points="54.1,158.7 56.3,137.5 66.8,123.1 98.7,123.1 100.1,165.3 85.8,173.0" fill="var(--g12)" stroke="var(--g12)" stroke-width="1.5" stroke-linejoin="round"/><polygon points="100.1,165.3 98.7,123.1 99.0,122.9 123.7,118.8 129.4,160.8 120.6,165.3" fill="var(--g11)" stroke="var(--g11)" stroke-width="1.5" stroke-linejoin="round"/><polygon points="129.4,160.8 123.7,118.8 128.5,114.0 157.2,117.0 162.9,129.8 150.8,161.1" fill="var(--g14)" stroke="var(--g14)" stroke-width="1.5" stroke-linejoin="round"/><polygon points="150.8,161.1 162.9,129.8 206.9,137.0 211.7,157.2 198.0,169.2 155.0,165.6" fill="var(--g12)" stroke="var(--g12)" stroke-width="1.5" stroke-linejoin="round"/><polygon points="211.7,157.2 206.9,137.0 209.6,129.5 253.7,126.2 266.5,132.4 265.7,134.8 237.8,168.7" fill="var(--g14)" stroke="var(--g14)" stroke-width="1.5" stroke-linejoin="round"/><polygon points="237.8,168.7 265.7,134.8 290.3,174.1 241.8,175.7" fill="var(--g11)" stroke="var(--g11)" stroke-width="1.5" stroke-linejoin="round"/><polygon points="265.7,134.8 266.5,132.4 279.8,120.8 313.7,138.1 306.3,170.3 293.3,175.3 290.3,174.1" fill="var(--g12)" stroke="var(--g12)" stroke-width="1.5" stroke-linejoin="round"/><polygon points="306.3,170.3 313.7,138.1 331.0,129.9 357.1,138.0 359.1,139.1 359.4,155.8 327.5,185.4" fill="var(--g12)" stroke="var(--g12)" stroke-width="1.5" stroke-linejoin="round"/><polygon points="359.4,155.8 359.1,139.1 396.6,123.1 401.7,126.0 398.9,171.3 370.8,172.9" fill="var(--g13)" stroke="var(--g13)" stroke-width="1.5" stroke-linejoin="round"/><polygon points="398.9,171.3 401.7,126.0 431.9,130.8 437.4,145.1 420.9,176.5 404.7,177.6" fill="var(--g13)" stroke="var(--g13)" stroke-width="1.5" stroke-linejoin="round"/><polygon points="437.4,145.1 431.9,130.8 439.1,123.7 472.9,120.9 484.9,129.2 473.0,170.1 469.2,171.5" fill="var(--g13)" stroke="var(--g13)" stroke-width="1.5" stroke-linejoin="round"/><polygon points="5.1,193.8 10.5,160.1 16.7,154.6 53.2,159.2 32.9,204.8" fill="var(--g11)" stroke="var(--g11)" stroke-width="1.5" stroke-linejoin="round"/><polygon points="32.9,204.8 53.2,159.2 54.1,158.7 85.8,173.0 86.9,194.4 78.3,212.0 52.7,215.4 34.9,209.4" fill="var(--g14)" stroke="var(--g14)" stroke-width="1.5" stroke-linejoin="round"/><polygon points="86.9,194.4 85.8,173.0 100.1,165.3 120.6,165.3 130.1,209.7 128.6,213.0" fill="var(--g13)" stroke="var(--g13)" stroke-width="1.5" stroke-linejoin="round"/><polygon points="130.1,209.7 120.6,165.3 129.4,160.8 150.8,161.1 155.0,165.6 156.6,191.4" fill="var(--g13)" stroke="var(--g13)" stroke-width="1.5" stroke-linejoin="round"/><polygon points="156.6,191.4 155.0,165.6 198.0,169.2 190.9,206.6 179.9,209.8" fill="var(--g13)" stroke="var(--g13)" stroke-width="1.5" stroke-linejoin="round"/><polygon points="190.9,206.6 198.0,169.2 211.7,157.2 237.8,168.7 241.8,175.7 243.0,194.5 235.6,208.5 208.7,217.5" fill="var(--g13)" stroke="var(--g13)" stroke-width="1.5" stroke-linejoin="round"/><polygon points="243.0,194.5 241.8,175.7 290.3,174.1 293.3,175.3 287.8,195.7 275.2,206.1" fill="var(--g10)" stroke="var(--g10)" stroke-width="1.5" stroke-linejoin="round"/><polygon points="287.8,195.7 293.3,175.3 306.3,170.3 327.5,185.4 330.7,195.0 318.6,224.0" fill="var(--g10)" stroke="var(--g10)" stroke-width="1.5" stroke-linejoin="round"/><polygon points="330.7,195.0 327.5,185.4 359.4,155.8 370.8,172.9 369.3,202.6" fill="var(--g11)" stroke="var(--g11)" stroke-width="1.5" stroke-linejoin="round"/><polygon points="369.3,202.6 370.8,172.9 398.9,171.3 404.7,177.6 395.2,208.1 387.2,212.9 375.0,210.3" fill="var(--g11)" stroke="var(--g11)" stroke-width="1.5" stroke-linejoin="round"/><polygon points="395.2,208.1 404.7,177.6 420.9,176.5 440.1,201.6 434.8,210.2" fill="var(--g10)" stroke="var(--g10)" stroke-width="1.5" stroke-linejoin="round"/><polygon points="420.9,176.5 437.4,145.1 469.2,171.5 460.3,192.0 440.1,201.6" fill="var(--g13)" stroke="var(--g13)" stroke-width="1.5" stroke-linejoin="round"/><polygon points="21.2,237.4 34.9,209.4 52.7,215.4 58.3,250.5 56.4,251.4 26.4,247.7" fill="var(--g10)" stroke="var(--g10)" stroke-width="1.5" stroke-linejoin="round"/><polygon points="58.3,250.5 52.7,215.4 78.3,212.0 89.1,234.8 83.2,253.4" fill="var(--g10)" stroke="var(--g10)" stroke-width="1.5" stroke-linejoin="round"/><polygon points="78.3,212.0 86.9,194.4 128.6,213.0 130.1,226.7 89.1,234.8" fill="var(--g12)" stroke="var(--g12)" stroke-width="1.5" stroke-linejoin="round"/><polygon points="130.1,226.7 128.6,213.0 130.1,209.7 156.6,191.4 179.9,209.8 159.6,239.6 134.4,232.0" fill="var(--g11)" stroke="var(--g11)" stroke-width="1.5" stroke-linejoin="round"/><polygon points="159.6,239.6 179.9,209.8 190.9,206.6 208.7,217.5 208.4,249.7 206.8,251.1 160.7,241.7" fill="var(--g13)" stroke="var(--g13)" stroke-width="1.5" stroke-linejoin="round"/><polygon points="208.4,249.7 208.7,217.5 235.6,208.5 251.9,239.5 239.7,255.6" fill="var(--g14)" stroke="var(--g14)" stroke-width="1.5" stroke-linejoin="round"/><polygon points="235.6,208.5 243.0,194.5 275.2,206.1 279.0,238.0 251.9,239.5" fill="var(--g12)" stroke="var(--g12)" stroke-width="1.5" stroke-linejoin="round"/><polygon points="279.0,238.0 275.2,206.1 287.8,195.7 318.6,224.0 318.3,234.4 284.7,241.4" fill="var(--g14)" stroke="var(--g14)" stroke-width="1.5" stroke-linejoin="round"/><polygon points="318.3,234.4 318.6,224.0 330.7,195.0 369.3,202.6 375.0,210.3 348.2,242.7 320.9,236.7" fill="var(--g11)" stroke="var(--g11)" stroke-width="1.5" stroke-linejoin="round"/><polygon points="348.2,242.7 375.0,210.3 387.2,212.9 399.4,245.9 359.1,258.8" fill="var(--g14)" stroke="var(--g14)" stroke-width="1.5" stroke-linejoin="round"/><polygon points="399.4,245.9 387.2,212.9 395.2,208.1 434.8,210.2 438.8,244.0 432.2,250.4 403.9,249.2" fill="var(--g13)" stroke="var(--g13)" stroke-width="1.5" stroke-linejoin="round"/><polygon points="438.8,244.0 434.8,210.2 440.1,201.6 460.3,192.0 482.0,218.0 476.4,243.6 472.4,246.4" fill="var(--g11)" stroke="var(--g11)" stroke-width="1.5" stroke-linejoin="round"/><polygon points="20.5,281.3 26.4,247.7 56.4,251.4 44.9,290.5" fill="var(--g14)" stroke="var(--g14)" stroke-width="1.5" stroke-linejoin="round"/><polygon points="44.9,290.5 56.4,251.4 58.3,250.5 83.2,253.4 95.3,280.5 92.0,285.4 50.1,295.1" fill="var(--g14)" stroke="var(--g14)" stroke-width="1.5" stroke-linejoin="round"/><polygon points="83.2,253.4 89.1,234.8 130.1,226.7 134.4,232.0 113.3,277.5 95.3,280.5" fill="var(--g13)" stroke="var(--g13)" stroke-width="1.5" stroke-linejoin="round"/><polygon points="113.3,277.5 134.4,232.0 159.6,239.6 160.7,241.7 161.7,276.6 126.7,283.1" fill="var(--g14)" stroke="var(--g14)" stroke-width="1.5" stroke-linejoin="round"/><polygon points="161.7,276.6 160.7,241.7 206.8,251.1 196.2,286.0 175.1,289.3" fill="var(--g10)" stroke="var(--g10)" stroke-width="1.5" stroke-linejoin="round"/><polygon points="196.2,286.0 206.8,251.1 208.4,249.7 239.7,255.6 246.1,281.8 207.2,293.3" fill="var(--g10)" stroke="var(--g10)" stroke-width="1.5" stroke-linejoin="round"/><polygon points="246.1,281.8 239.7,255.6 251.9,239.5 279.0,238.0 284.7,241.4 280.9,283.2 254.2,287.8" fill="var(--g14)" stroke="var(--g14)" stroke-width="1.5" stroke-linejoin="round"/><polygon points="280.9,283.2 284.7,241.4 318.3,234.4 320.9,236.7 317.1,282.8 310.2,287.5 288.6,288.4" fill="var(--g12)" stroke="var(--g12)" stroke-width="1.5" stroke-linejoin="round"/><polygon points="317.1,282.8 320.9,236.7 348.2,242.7 359.1,258.8 360.1,281.1 355.6,289.1" fill="var(--g11)" stroke="var(--g11)" stroke-width="1.5" stroke-linejoin="round"/><polygon points="360.1,281.1 359.1,258.8 399.4,245.9 403.9,249.2 394.1,279.9" fill="var(--g11)" stroke="var(--g11)" stroke-width="1.5" stroke-linejoin="round"/><polygon points="394.1,279.9 403.9,249.2 432.2,250.4 433.6,273.9 427.0,284.0 400.9,287.9" fill="var(--g11)" stroke="var(--g11)" stroke-width="1.5" stroke-linejoin="round"/><polygon points="433.6,273.9 432.2,250.4 438.8,244.0 472.4,246.4 476.0,289.4 469.6,293.6" fill="var(--g10)" stroke="var(--g10)" stroke-width="1.5" stroke-linejoin="round"/><polygon points="9.5,318.9 20.1,281.5 20.5,281.3 44.9,290.5 50.1,295.1 47.7,321.1" fill="var(--g13)" stroke="var(--g13)" stroke-width="1.5" stroke-linejoin="round"/><polygon points="53.6,338.7 47.7,321.1 50.1,295.1 92.0,285.4 96.4,317.4" fill="var(--g13)" stroke="var(--g13)" stroke-width="1.5" stroke-linejoin="round"/><polygon points="96.4,317.4 92.0,285.4 95.3,280.5 113.3,277.5 126.7,283.1 135.9,313.8 101.9,323.4" fill="var(--g14)" stroke="var(--g14)" stroke-width="1.5" stroke-linejoin="round"/><polygon points="135.9,313.8 126.7,283.1 161.7,276.6 175.1,289.3 170.4,303.1 151.3,323.5 148.9,323.3" fill="var(--g13)" stroke="var(--g13)" stroke-width="1.5" stroke-linejoin="round"/><polygon points="170.4,303.1 175.1,289.3 196.2,286.0 207.2,293.3 214.9,321.8 202.7,345.8" fill="var(--g12)" stroke="var(--g12)" stroke-width="1.5" stroke-linejoin="round"/><polygon points="214.9,321.8 207.2,293.3 246.1,281.8 254.2,287.8 249.7,318.5" fill="var(--g10)" stroke="var(--g10)" stroke-width="1.5" stroke-linejoin="round"/><polygon points="249.7,318.5 254.2,287.8 280.9,283.2 288.6,288.4 287.7,316.2 253.4,323.9" fill="var(--g13)" stroke="var(--g13)" stroke-width="1.5" stroke-linejoin="round"/><polygon points="287.7,316.2 288.6,288.4 310.2,287.5 324.9,333.6 323.5,335.6 293.4,325.6" fill="var(--g14)" stroke="var(--g14)" stroke-width="1.5" stroke-linejoin="round"/><polygon points="324.9,333.6 310.2,287.5 317.1,282.8 355.6,289.1 359.0,313.9" fill="var(--g13)" stroke="var(--g13)" stroke-width="1.5" stroke-linejoin="round"/><polygon points="359.0,313.9 355.6,289.1 360.1,281.1 394.1,279.9 400.9,287.9 397.4,320.7 366.4,318.7" fill="var(--g11)" stroke="var(--g11)" stroke-width="1.5" stroke-linejoin="round"/><polygon points="397.4,320.7 400.9,287.9 427.0,284.0 431.7,315.3 417.8,325.6 405.5,326.6" fill="var(--g12)" stroke="var(--g12)" stroke-width="1.5" stroke-linejoin="round"/><polygon points="431.7,315.3 427.0,284.0 433.6,273.9 469.6,293.6 458.9,315.6" fill="var(--g10)" stroke="var(--g10)" stroke-width="1.5" stroke-linejoin="round"/><polygon points="9.2,347.2 5.2,322.6 9.5,318.9 47.7,321.1 53.6,338.7 51.6,351.6 26.9,353.8" fill="var(--g13)" stroke="var(--g13)" stroke-width="1.5" stroke-linejoin="round"/><polygon points="51.6,351.6 53.6,338.7 96.4,317.4 101.9,323.4 106.6,340.4 94.1,350.6 52.6,353.0" fill="var(--g12)" stroke="var(--g12)" stroke-width="1.5" stroke-linejoin="round"/><polygon points="106.6,340.4 101.9,323.4 135.9,313.8 148.9,323.3 120.6,349.3" fill="var(--g14)" stroke="var(--g14)" stroke-width="1.5" stroke-linejoin="round"/><polygon points="123.1,355.3 120.6,349.3 148.9,323.3 151.3,323.5 168.8,353.9" fill="var(--g13)" stroke="var(--g13)" stroke-width="1.5" stroke-linejoin="round"/><polygon points="151.3,323.5 170.4,303.1 202.7,345.8 201.7,352.3 176.3,360.8 168.8,353.9" fill="var(--g11)" stroke="var(--g11)" stroke-width="1.5" stroke-linejoin="round"/><polygon points="201.7,352.3 202.7,345.8 214.9,321.8 249.7,318.5 253.4,323.9 257.1,344.8 234.0,363.3 203.3,353.5" fill="var(--g14)" stroke="var(--g14)" stroke-width="1.5" stroke-linejoin="round"/><polygon points="257.1,344.8 253.4,323.9 287.7,316.2 293.4,325.6 272.3,350.4" fill="var(--g14)" stroke="var(--g14)" stroke-width="1.5" stroke-linejoin="round"/><polygon points="272.3,350.4 293.4,325.6 323.5,335.6 323.3,344.6 282.3,363.1" fill="var(--g10)" stroke="var(--g10)" stroke-width="1.5" stroke-linejoin="round"/><polygon points="323.3,344.6 323.5,335.6 324.9,333.6 359.0,313.9 366.4,318.7 368.2,357.2 358.3,362.0 330.2,359.8" fill="var(--g12)" stroke="var(--g12)" stroke-width="1.5" stroke-linejoin="round"/><polygon points="368.2,357.2 366.4,318.7 397.4,320.7 405.5,326.6 395.5,368.9" fill="var(--g10)" stroke="var(--g10)" stroke-width="1.5" stroke-linejoin="round"/><polygon points="395.5,368.9 405.5,326.6 417.8,325.6 441.2,359.8 396.7,371.3" fill="var(--g13)" stroke="var(--g13)" stroke-width="1.5" stroke-linejoin="round"/><polygon points="441.2,359.8 417.8,325.6 431.7,315.3 458.9,315.6 470.8,339.6 469.6,347.8 464.1,354.9 443.2,360.7" fill="var(--g12)" stroke="var(--g12)" stroke-width="1.5" stroke-linejoin="round"/><polygon points="12.1,390.9 26.9,353.8 51.6,351.6 52.6,353.0 60.7,384.3 47.3,399.9" fill="var(--g11)" stroke="var(--g11)" stroke-width="1.5" stroke-linejoin="round"/><polygon points="60.7,384.3 52.6,353.0 94.1,350.6 95.4,393.4" fill="var(--g10)" stroke="var(--g10)" stroke-width="1.5" stroke-linejoin="round"/><polygon points="95.4,393.4 94.1,350.6 106.6,340.4 120.6,349.3 123.1,355.3 122.7,384.2 105.8,395.0 96.6,394.1" fill="var(--g13)" stroke="var(--g13)" stroke-width="1.5" stroke-linejoin="round"/><polygon points="122.7,384.2 123.1,355.3 168.8,353.9 176.3,360.8 162.0,391.0" fill="var(--g12)" stroke="var(--g12)" stroke-width="1.5" stroke-linejoin="round"/><polygon points="169.2,410.6 162.0,391.0 176.3,360.8 201.7,352.3 203.3,353.5 209.1,405.8" fill="var(--g11)" stroke="var(--g11)" stroke-width="1.5" stroke-linejoin="round"/><polygon points="209.1,405.8 203.3,353.5 234.0,363.3 242.7,386.1 211.1,406.7" fill="var(--g12)" stroke="var(--g12)" stroke-width="1.5" stroke-linejoin="round"/><polygon points="242.7,386.1 234.0,363.3 257.1,344.8 272.3,350.4 282.3,363.1 283.1,385.7 267.5,396.2 258.6,397.2" fill="var(--g13)" stroke="var(--g13)" stroke-width="1.5" stroke-linejoin="round"/><polygon points="283.1,385.7 282.3,363.1 323.3,344.6 330.2,359.8 322.7,395.2 318.9,397.1" fill="var(--g12)" stroke="var(--g12)" stroke-width="1.5" stroke-linejoin="round"/><polygon points="322.7,395.2 330.2,359.8 358.3,362.0 361.3,402.7 354.1,405.9" fill="var(--g11)" stroke="var(--g11)" stroke-width="1.5" stroke-linejoin="round"/><polygon points="361.3,402.7 358.3,362.0 368.2,357.2 395.5,368.9 396.7,371.3 396.4,399.7" fill="var(--g13)" stroke="var(--g13)" stroke-width="1.5" stroke-linejoin="round"/><polygon points="396.4,399.7 396.7,371.3 441.2,359.8 443.2,360.7 437.4,395.6 430.1,399.8 397.5,400.8" fill="var(--g14)" stroke="var(--g14)" stroke-width="1.5" stroke-linejoin="round"/><polygon points="437.4,395.6 443.2,360.7 464.1,354.9 477.0,392.9 471.0,403.6" fill="var(--g12)" stroke="var(--g12)" stroke-width="1.5" stroke-linejoin="round"/><polygon points="-0.2,427.9 8.7,391.8 12.1,390.9 47.3,399.9 45.3,420.6 10.9,435.3" fill="var(--g14)" stroke="var(--g14)" stroke-width="1.5" stroke-linejoin="round"/><polygon points="45.3,420.6 47.3,399.9 60.7,384.3 95.4,393.4 96.6,394.1 80.5,429.1 46.2,421.6" fill="var(--g13)" stroke="var(--g13)" stroke-width="1.5" stroke-linejoin="round"/><polygon points="91.3,456.2 80.5,429.1 96.6,394.1 105.8,395.0 119.8,429.3 92.2,456.5" fill="var(--g13)" stroke="var(--g13)" stroke-width="1.5" stroke-linejoin="round"/><polygon points="119.8,429.3 105.8,395.0 122.7,384.2 162.0,391.0 169.2,410.6 168.1,415.4 139.3,434.9" fill="var(--g12)" stroke="var(--g12)" stroke-width="1.5" stroke-linejoin="round"/><polygon points="168.1,415.4 169.2,410.6 209.1,405.8 211.1,406.7 221.6,426.5 194.3,447.4 171.0,420.7" fill="var(--g11)" stroke="var(--g11)" stroke-width="1.5" stroke-linejoin="round"/><polygon points="221.6,426.5 211.1,406.7 242.7,386.1 258.6,397.2 241.2,435.1" fill="var(--g12)" stroke="var(--g12)" stroke-width="1.5" stroke-linejoin="round"/><polygon points="241.2,435.1 258.6,397.2 267.5,396.2 283.5,429.5 280.1,433.8 241.3,435.4" fill="var(--g11)" stroke="var(--g11)" stroke-width="1.5" stroke-linejoin="round"/><polygon points="283.5,429.5 267.5,396.2 283.1,385.7 318.9,397.1 309.6,427.4" fill="var(--g12)" stroke="var(--g12)" stroke-width="1.5" stroke-linejoin="round"/><polygon points="309.6,427.4 318.9,397.1 322.7,395.2 354.1,405.9 352.8,444.7 318.5,447.0" fill="var(--g10)" stroke="var(--g10)" stroke-width="1.5" stroke-linejoin="round"/><polygon points="352.8,444.7 354.1,405.9 361.3,402.7 396.4,399.7 397.5,400.8 399.8,428.0 395.0,438.1 363.4,454.7" fill="var(--g14)" stroke="var(--g14)" stroke-width="1.5" stroke-linejoin="round"/><polygon points="399.8,428.0 397.5,400.8 430.1,399.8 444.6,441.8 442.5,443.3" fill="var(--g12)" stroke="var(--g12)" stroke-width="1.5" stroke-linejoin="round"/><polygon points="444.6,441.8 430.1,399.8 437.4,395.6 471.0,403.6 476.0,430.0 467.9,437.4" fill="var(--g12)" stroke="var(--g12)" stroke-width="1.5" stroke-linejoin="round"/><polygon points="17.5,473.6 10.9,435.3 45.3,420.6 46.2,421.6 56.7,465.1 54.9,467.2" fill="var(--g12)" stroke="var(--g12)" stroke-width="1.5" stroke-linejoin="round"/><polygon points="56.7,465.1 46.2,421.6 80.5,429.1 91.3,456.2" fill="var(--g14)" stroke="var(--g14)" stroke-width="1.5" stroke-linejoin="round"/><polygon points="92.2,456.5 119.8,429.3 139.3,434.9 141.7,456.4 121.3,475.9 102.9,471.4" fill="var(--g12)" stroke="var(--g12)" stroke-width="1.5" stroke-linejoin="round"/><polygon points="141.7,456.4 139.3,434.9 168.1,415.4 171.0,420.7 163.0,468.1" fill="var(--g12)" stroke="var(--g12)" stroke-width="1.5" stroke-linejoin="round"/><polygon points="163.0,468.1 171.0,420.7 194.3,447.4 195.4,460.0 169.7,475.5" fill="var(--g12)" stroke="var(--g12)" stroke-width="1.5" stroke-linejoin="round"/><polygon points="195.4,460.0 194.3,447.4 221.6,426.5 241.2,435.1 241.3,435.4 242.7,466.3 205.6,466.3" fill="var(--g11)" stroke="var(--g11)" stroke-width="1.5" stroke-linejoin="round"/><polygon points="242.7,466.3 241.3,435.4 280.1,433.8 279.6,459.4 244.4,468.5" fill="var(--g13)" stroke="var(--g13)" stroke-width="1.5" stroke-linejoin="round"/><polygon points="279.6,459.4 280.1,433.8 283.5,429.5 309.6,427.4 318.5,447.0 307.7,470.4 302.0,470.6" fill="var(--g12)" stroke="var(--g12)" stroke-width="1.5" stroke-linejoin="round"/><polygon points="307.7,470.4 318.5,447.0 352.8,444.7 363.4,454.7 363.7,460.0 318.0,484.3" fill="var(--g13)" stroke="var(--g13)" stroke-width="1.5" stroke-linejoin="round"/><polygon points="366.1,466.7 363.7,460.0 363.4,454.7 395.0,438.1 408.3,463.7 397.6,474.8" fill="var(--g10)" stroke="var(--g10)" stroke-width="1.5" stroke-linejoin="round"/><polygon points="408.3,463.7 395.0,438.1 399.8,428.0 442.5,443.3 431.9,469.0" fill="var(--g13)" stroke="var(--g13)" stroke-width="1.5" stroke-linejoin="round"/><polygon points="435.8,480.5 431.9,469.0 442.5,443.3 444.6,441.8 467.9,437.4 473.1,469.9 471.1,471.7" fill="var(--g10)" stroke="var(--g10)" stroke-width="1.5" stroke-linejoin="round"/><polygon points="159.0,534.5 121.3,475.9 141.7,456.4 163.0,468.1 169.7,475.5" fill="var(--g10)" stroke="var(--g10)" stroke-width="1.5" stroke-linejoin="round"/></g></svg>
