<svg xmlns="http://www.w3.org/2000/svg" viewBox="0 0 64 64"><style>:root{--ground:#f7f3e9;--grout:#d5d0c5;--c1:#11392f;--c2:#1d5e4d;--c3:#2f8569;--c4:#58a983;--c5:#9bd4ad}@media(prefers-color-scheme:dark){:root{--ground:#0b1410;--grout:#111a16;--c1:#174b3d;--c2:#25755d;--c3:#38a67c;--c4:#70c99a;--c5:#b4e4bd}}path{stroke:var(--grout);stroke-width:1.6;stroke-linejoin:round}</style><defs><linearGradient id="glass" x1="8" y1="6" x2="54" y2="58" gradientUnits="userSpaceOnUse"><stop stop-color="var(--c1)"/><stop offset=".42" stop-color="var(--c3)"/><stop offset=".72" stop-color="var(--c5)"/><stop offset="1" stop-color="var(--c2)"/></linearGradient></defs><rect x="1" y="1" width="62" height="62" rx="11" fill="var(--ground)"/><path fill="url(#glass)" d="M47.8 13.1C36.5 4.4 20.2 6.5 11.5 17.8S4.9 45.4 16.2 54.1c9.8 7.5 23.5 7 32.6-.6l-7.6-9.2c-5 4.1-12.3 4.4-17.6.3-6.2-4.8-7.4-13.7-2.6-20s13.7-7.4 20-2.6c3.1 2.4 5 5.9 5.4 9.7l-5.8 1.1L55 42l6-15.9-3.3 2.1c-1.2-5.9-4.6-11.3-9.9-15.1Z"/><path fill="url(#glass)" d="M41.4 33.8l4.9-1 .1 3.2-5-2.2Z"/><path fill="url(#glass)" d="M51 27a1.55 1.55 0 1 0 3.1 0 1.55 1.55 0 1 0-3.1 0"/></svg>
