<svg xmlns="http://www.w3.org/2000/svg" viewBox="0 0 64 64"><style>:root{--ground:#f7f3e9;--grout:#d5d0c5;--c1:#11392f;--c2:#1d5e4d;--c3:#2f8569;--c4:#58a983;--c5:#9bd4ad}@media(prefers-color-scheme:dark){:root{--ground:#0b1410;--grout:#111a16;--c1:#174b3d;--c2:#25755d;--c3:#38a67c;--c4:#70c99a;--c5:#b4e4bd}}path{stroke:var(--grout);stroke-width:1.5;stroke-linejoin:round}</style><defs><pattern id="mosaic" width="16" height="16" patternUnits="userSpaceOnUse"><rect width="16" height="16" fill="var(--grout)"/><rect x="1" y="1" width="6" height="6" rx=".7" fill="var(--c1)"/><rect x="9" y="1" width="6" height="6" rx=".7" fill="var(--c2)"/><rect x="1" y="9" width="6" height="6" rx=".7" fill="var(--c3)"/><rect x="9" y="9" width="6" height="6" rx=".7" fill="var(--c5)"/></pattern></defs><rect x="1" y="1" width="62" height="62" rx="11" fill="var(--ground)"/><path fill="url(#mosaic)" d="M31 27C22 12 11 10 7 15c2 12 9 20 22 22Z"/><path fill="url(#mosaic)" d="M33 27c9-15 20-17 24-12-2 12-9 20-22 22Z"/><path fill="url(#mosaic)" d="M29 36C17 34 10 40 12 48c7 6 13 7 19 3Z"/><path fill="url(#mosaic)" d="M35 36c12-2 19 4 17 12-7 6-13 7-19 3Z"/><path fill="url(#mosaic)" d="m32 20 4 10-2 25h-4l-2-25Z"/></svg>
