<svg xmlns="http://www.w3.org/2000/svg" viewBox="0 0 480 480"><style>:root{--ground:#0b1410;--g00:#26d3e4;--g01:#1dcade;--g02:#1caaca;--g03:#17b2c0;--g04:#16a7b2;--g10:#f9feff;--g11:#e0fafc;--g12:#dbfafd;--g13:#c1f3fa;--g14:#baf2fb}</style><defs><clipPath id="r0"><path d="M240 70L269.7 225.3L425 255L269.7 284.7L240 440L210.3 284.7L55 255L210.3 225.3Z"/></clipPath><clipPath id="r1"><path d="M196 255a44 44 0 1 0 88 0a44 44 0 1 0 -88 0Z"/></clipPath></defs><rect x="8" y="8" width="464" height="464" rx="82" fill="var(--ground)"/><path d="M240 70L269.7 225.3L425 255L269.7 284.7L240 440L210.3 284.7L55 255L210.3 225.3Z" fill="var(--g02)"/><path d="M196 255a44 44 0 1 0 88 0a44 44 0 1 0 -88 0Z" fill="var(--g12)"/></svg>
